<svg width="1730" height="1513" viewBox="0 0 1730 1513" fill="none" xmlns="http://www.w3.org/2000/svg">
<mask id="mask0_776_1168" style="mask-type:luminance" maskUnits="userSpaceOnUse" x="0" y="0" width="1730" height="1513">
<path d="M0.985728 -5.83442e-06L0 1511.53L1728.28 1512.66L1729.27 1.12708L0.985728 -5.83442e-06Z" fill="white"/>
</mask>
<g mask="url(#mask0_776_1168)">
<path d="M407.074 1733.14L406.722 2271.96L873.176 2541.67L1339.98 2272.57L1340.33 1733.75L873.878 1464.04L407.074 1733.14Z" fill="#262F56"/>
<path d="M-674.299 1069.96L-674.586 1509.83L-293.794 1730.01L87.2893 1510.32L87.5762 1070.46L-293.221 850.27L-674.299 1069.96Z" fill="#262F56"/>
<path d="M158.16 1858.51L132.83 1873.12L132.811 1902.35L122.026 1902.35L122.05 1866.88L152.774 1849.16L158.16 1858.51L158.16 1858.51ZM121.986 1963.65L121.946 2024.96L132.731 2024.96L132.771 1963.66L121.986 1963.65ZM121.906 2086.26L121.866 2147.56L132.651 2147.57L132.691 2086.27L121.906 2086.26ZM121.827 2208.87L121.787 2270.17L132.571 2270.18L132.611 2208.88L121.827 2208.87ZM121.747 2331.48L121.707 2392.78L132.491 2392.79L132.531 2331.48L121.747 2331.48ZM121.667 2454.08L121.627 2515.39L132.411 2515.39L132.451 2454.09L121.667 2454.08ZM121.587 2576.69L121.547 2638L132.331 2638L132.371 2576.7L121.587 2576.69ZM132.272 2728.55L132.291 2699.31L121.507 2699.3L121.484 2734.77L152.185 2752.53L157.583 2743.19L132.272 2728.55L132.272 2728.55ZM741.36 3080.73L735.962 3090.07L789.03 3120.75L794.429 3111.42L741.36 3080.73ZM635.217 3019.36L629.819 3028.7L682.888 3059.38L688.286 3050.05L635.217 3019.36ZM529.075 2957.99L523.676 2967.32L576.75 2998.01L582.149 2988.67L529.075 2957.99ZM422.937 2896.61L417.539 2905.95L470.608 2936.64L476.006 2927.3L422.937 2896.61ZM316.795 2835.24L311.396 2844.58L364.465 2875.27L369.863 2865.93L316.795 2835.24ZM210.652 2773.87L205.254 2783.21L258.323 2813.89L263.721 2804.56L210.652 2773.87ZM898.145 3142.14L872.814 3156.74L847.503 3142.1L842.104 3151.44L872.806 3169.19L903.531 3151.48L898.145 3142.14ZM1535.47 2774.73L1482.37 2805.35L1487.75 2814.69L1540.86 2784.07L1535.47 2774.73ZM1429.25 2835.96L1376.14 2866.58L1381.53 2875.92L1434.64 2845.31L1429.25 2835.96ZM1323.03 2897.2L1269.93 2927.81L1275.31 2937.16L1328.42 2906.54L1323.03 2897.2ZM1216.82 2958.43L1163.7 2989.05L1169.09 2998.39L1222.2 2967.77L1216.82 2958.43ZM1110.59 3019.66L1057.49 3050.28L1062.87 3059.62L1115.98 3029.01L1110.59 3019.66ZM1004.38 3080.9L951.263 3111.51L956.649 3120.86L1009.76 3090.24L1004.38 3080.9ZM1613.94 2700.26L1613.92 2729.5L1588.59 2744.1L1593.98 2753.45L1624.7 2735.73L1624.73 2700.26L1613.94 2700.26L1613.94 2700.26ZM1614.42 1964.62L1614.38 2025.92L1625.17 2025.93L1625.21 1964.62L1614.42 1964.62ZM1614.34 2087.22L1614.3 2148.53L1625.09 2148.53L1625.13 2087.23L1614.34 2087.22ZM1614.26 2209.83L1614.22 2271.13L1625.01 2271.14L1625.05 2209.84L1614.26 2209.83ZM1614.18 2332.44L1614.14 2393.74L1624.93 2393.75L1624.97 2332.45L1614.18 2332.44ZM1614.1 2455.05L1614.06 2516.35L1624.85 2516.36L1624.89 2455.05L1614.1 2455.05ZM1614.02 2577.65L1613.98 2638.95L1624.77 2638.96L1624.81 2577.66L1614.02 2577.65ZM1594.57 1850.1L1589.17 1859.44L1614.48 1874.07L1614.46 1903.31L1625.25 1903.32L1625.27 1867.85L1594.57 1850.09L1594.57 1850.1ZM1488.43 1788.73L1483.03 1798.06L1536.1 1828.75L1541.5 1819.41L1488.43 1788.73ZM1382.29 1727.36L1376.89 1736.69L1429.96 1767.38L1435.36 1758.04L1382.29 1727.36ZM1276.15 1665.98L1270.75 1675.32L1323.82 1706.01L1329.22 1696.67L1276.15 1665.98ZM1170.01 1604.61L1164.62 1613.95L1217.68 1644.63L1223.08 1635.3L1170.01 1604.61ZM1063.87 1543.24L1058.47 1552.58L1111.54 1583.26L1116.94 1573.93L1063.87 1543.24ZM957.734 1481.87L952.336 1491.2L1005.4 1521.89L1010.8 1512.55L957.734 1481.87ZM873.958 1433.43L843.234 1451.14L848.62 1460.48L873.95 1445.88L899.262 1460.52L904.66 1451.18L873.958 1433.43ZM790.12 1481.76L737.011 1512.37L742.397 1521.72L795.506 1491.1L790.12 1481.76ZM683.897 1542.99L630.789 1573.61L636.175 1582.95L689.283 1552.33L683.897 1542.99ZM577.675 1604.23L524.566 1634.84L529.952 1644.19L583.061 1613.57L577.675 1604.23ZM471.457 1665.46L418.343 1696.08L423.729 1705.42L476.843 1674.8L471.457 1665.46ZM365.235 1726.69L312.121 1757.31L317.507 1766.65L370.621 1736.04L365.235 1726.69ZM259.012 1787.93L205.903 1818.54L211.29 1827.89L264.398 1797.27L259.012 1787.93Z" fill="#262F56"/>
<path d="M-7.13794 186.455L102.648 296.384L-7.28123 406.17L-90.7725 489.553L-200.559 379.623L-117.067 296.241L-240.056 173.092L-130.126 63.306L-7.13794 186.455ZM-81.2613 61.2509L-196.756 176.595L-73.7681 299.744L-157.259 383.126L-41.9149 498.621L157.071 299.894L-81.2613 61.2509ZM-146.136 383.133L-62.6445 299.751L-185.633 176.603L-81.2685 72.3745L145.948 299.887L-41.9077 487.498L-146.136 383.133Z" fill="#CE8848"/>
<path d="M1610.13 1289.01L1602.31 1289.01L1602.28 1328.9L1562.39 1328.88L1562.39 1336.7L1602.28 1336.73L1602.25 1370.48L1562.37 1370.46L1562.36 1378.28L1602.25 1378.3L1602.22 1418.19L1610.05 1418.2L1610.07 1378.31L1643.83 1378.33L1643.8 1418.22L1651.63 1418.23L1651.65 1378.34L1691.54 1378.36L1691.55 1370.54L1651.66 1370.51L1651.68 1336.76L1691.57 1336.78L1691.57 1328.96L1651.68 1328.93L1651.71 1289.04L1643.89 1289.04L1643.86 1328.92L1610.1 1328.9L1610.13 1289.01ZM1610.1 1336.73L1643.86 1336.75L1643.83 1370.51L1610.08 1370.49L1610.1 1336.73Z" fill="#262F56"/>
<path d="M1585.19 169.44L1490.37 188.32C1490.37 188.32 1490.33 188.33 1490.31 188.335C1490.29 188.335 1490.27 188.34 1490.25 188.346C1490.22 188.356 1490.19 188.366 1490.16 188.376C1490.1 188.392 1490.05 188.407 1490 188.428C1489.95 188.448 1489.9 188.469 1489.86 188.489C1489.81 188.51 1489.76 188.535 1489.71 188.561C1489.67 188.587 1489.62 188.613 1489.58 188.638C1489.53 188.664 1489.49 188.695 1489.45 188.726C1489.41 188.756 1489.36 188.787 1489.32 188.823C1489.28 188.854 1489.24 188.89 1489.2 188.926C1489.17 188.962 1489.13 188.998 1489.1 189.039C1489.06 189.08 1489.02 189.116 1488.99 189.157C1488.96 189.198 1488.93 189.239 1488.9 189.285C1488.87 189.327 1488.83 189.373 1488.81 189.414C1488.78 189.46 1488.75 189.507 1488.73 189.558C1488.71 189.604 1488.69 189.65 1488.66 189.697C1488.64 189.748 1488.62 189.799 1488.6 189.851C1488.59 189.882 1488.58 189.912 1488.57 189.943C1488.56 189.964 1488.56 189.979 1488.55 190C1488.55 190.02 1488.54 190.036 1488.53 190.056L1463.68 283.49C1463.47 284.287 1463.68 285.14 1464.25 285.742L1520.41 345.581C1520.41 345.581 1520.43 345.606 1520.44 345.616C1520.45 345.627 1520.46 345.642 1520.47 345.653C1520.5 345.678 1520.53 345.699 1520.56 345.725C1520.6 345.761 1520.63 345.797 1520.68 345.827C1520.72 345.858 1520.77 345.889 1520.81 345.92C1520.85 345.951 1520.89 345.977 1520.94 346.002C1520.99 346.028 1521.04 346.054 1521.09 346.08C1521.13 346.1 1521.17 346.126 1521.22 346.141C1521.27 346.162 1521.32 346.183 1521.37 346.198C1521.42 346.214 1521.47 346.229 1521.51 346.244C1521.56 346.26 1521.62 346.27 1521.67 346.28C1521.72 346.291 1521.77 346.301 1521.81 346.306C1521.87 346.312 1521.92 346.317 1521.98 346.322C1522.03 346.322 1522.08 346.332 1522.13 346.332C1522.18 346.332 1522.24 346.332 1522.3 346.322C1522.34 346.322 1522.4 346.322 1522.44 346.312C1522.5 346.307 1522.56 346.291 1522.61 346.281C1522.65 346.271 1522.69 346.271 1522.72 346.26C1522.74 346.261 1522.75 346.256 1522.76 346.25C1522.77 346.25 1522.78 346.25 1522.79 346.245L1609.08 322.019C1609.81 321.814 1610.4 321.274 1610.67 320.565L1644.05 232.473C1644.05 232.473 1644.06 232.442 1644.07 232.426C1644.08 232.4 1644.09 232.38 1644.09 232.354C1644.11 232.287 1644.12 232.221 1644.14 232.154C1644.15 232.113 1644.17 232.066 1644.17 232.025C1644.19 231.892 1644.21 231.758 1644.21 231.63C1644.21 231.486 1644.19 231.342 1644.17 231.198C1644.16 231.151 1644.14 231.11 1644.13 231.064C1644.11 230.971 1644.08 230.874 1644.05 230.781C1644.03 230.73 1644 230.678 1643.98 230.627C1643.94 230.545 1643.91 230.468 1643.86 230.39C1643.83 230.339 1643.79 230.288 1643.75 230.236C1643.72 230.185 1643.68 230.133 1643.64 230.082C1643.63 230.061 1643.6 230.041 1643.59 230.02C1643.58 230.01 1643.57 229.995 1643.56 229.979L1587.4 170.14C1586.83 169.539 1585.99 169.271 1585.19 169.43L1585.19 169.44ZM1468.63 283.432L1492.04 195.44L1543.72 250.506L1520.91 339.13L1468.63 283.432ZM1525.53 340.505L1548.92 252.56L1638.05 234.812L1606.62 317.741L1525.53 340.505ZM1637.1 230.088L1547.21 247.234L1500.41 197.358L1495.54 192.168L1584.83 174.385L1637.1 230.083L1637.1 230.088Z" fill="#CE8848"/>
<path d="M124.988 626.585L65.1984 638.492C65.1984 638.492 65.1728 638.497 65.1625 638.502C65.1522 638.508 65.1367 638.502 65.1265 638.508C65.1059 638.513 65.0853 638.523 65.0648 638.528C65.0339 638.538 64.998 638.549 64.9671 638.559C64.9363 638.569 64.9054 638.585 64.8745 638.595C64.8437 638.61 64.8129 638.626 64.782 638.641C64.7512 638.656 64.7254 638.672 64.6946 638.692C64.6637 638.708 64.638 638.728 64.6123 638.749C64.5866 638.769 64.5608 638.79 64.5351 638.81C64.5094 638.831 64.4837 638.851 64.458 638.877C64.4323 638.898 64.4117 638.923 64.3912 638.949C64.3706 638.975 64.3449 638.995 64.3243 639.021C64.3037 639.047 64.2831 639.072 64.2625 639.103C64.242 639.129 64.2265 639.155 64.2059 639.185C64.1905 639.216 64.1699 639.242 64.1544 639.273C64.139 639.304 64.1236 639.329 64.1133 639.36C64.0978 639.391 64.0875 639.427 64.0772 639.458C64.0721 639.478 64.0618 639.494 64.0567 639.514C64.0566 639.525 64.0515 639.54 64.0463 639.55C64.0463 639.561 64.036 639.576 64.036 639.586L48.366 698.499C48.232 699.003 48.3654 699.537 48.7249 699.918L84.1374 737.65C84.1374 737.65 84.1528 737.666 84.1631 737.671C84.1733 737.676 84.1785 737.686 84.1836 737.696C84.199 737.712 84.2196 737.727 84.235 737.743C84.2607 737.763 84.2864 737.789 84.3121 737.81C84.3378 737.83 84.3685 737.851 84.3942 737.866C84.4199 737.887 84.4456 737.902 84.4765 737.918C84.5073 737.933 84.5381 737.948 84.569 737.964C84.5947 737.979 84.6255 737.995 84.6511 738.005C84.682 738.021 84.718 738.031 84.7488 738.041C84.7797 738.052 84.8053 738.062 84.8361 738.072C84.8721 738.082 84.903 738.087 84.939 738.093C84.9698 738.098 85.0006 738.103 85.0315 738.108C85.0674 738.108 85.0983 738.113 85.1343 738.119C85.1651 738.119 85.1959 738.119 85.2268 738.119C85.2628 738.119 85.2988 738.119 85.3348 738.119C85.3656 738.119 85.3964 738.119 85.4273 738.114C85.4633 738.114 85.4993 738.103 85.5353 738.093C85.561 738.093 85.5815 738.088 85.6072 738.078C85.6123 738.078 85.6175 738.078 85.6278 738.073C85.6329 738.073 85.6432 738.073 85.6484 738.073L140.058 722.795C140.521 722.667 140.891 722.328 141.061 721.876L162.11 666.328C162.11 666.328 162.11 666.308 162.121 666.297C162.126 666.282 162.131 666.267 162.136 666.251C162.152 666.21 162.157 666.169 162.167 666.123C162.172 666.097 162.183 666.066 162.188 666.04C162.203 665.958 162.208 665.871 162.208 665.789C162.209 665.696 162.198 665.609 162.183 665.516C162.178 665.485 162.168 665.46 162.162 665.429C162.147 665.367 162.132 665.311 162.111 665.254C162.101 665.223 162.08 665.192 162.065 665.156C162.039 665.105 162.019 665.053 161.988 665.007C161.967 664.976 161.942 664.945 161.921 664.909C161.901 664.879 161.88 664.843 161.854 664.812C161.844 664.796 161.829 664.786 161.818 664.776C161.813 664.765 161.808 664.76 161.798 664.75L126.385 627.018C126.031 626.637 125.502 626.467 124.993 626.57L124.988 626.585ZM51.4914 698.465L66.2493 642.985L98.8365 677.709L84.4536 733.589L51.4914 698.47L51.4914 698.465ZM87.3675 734.45L102.12 678.996L158.321 667.806L138.502 720.096L87.3675 734.45ZM157.716 664.83L101.038 675.644L71.5224 644.197L68.4506 640.926L124.754 629.715L157.716 664.835L157.716 664.83Z" fill="#262F56"/>
<path d="M419.645 -238.522L425.628 -238.518L425.442 48.2012L419.458 48.1973L419.645 -238.522ZM442.718 48.2124L442.905 -238.506L436.922 -238.51L436.735 48.2085L442.718 48.2124ZM459.994 48.2237L460.181 -238.495L454.198 -238.499L454.011 48.2198L459.994 48.2237ZM477.271 48.235L477.458 -238.484L471.475 -238.488L471.288 48.2311L477.271 48.235ZM494.547 48.2462L494.734 -238.473L488.751 -238.477L488.564 48.2423L494.547 48.2462ZM511.824 48.2575L512.011 -238.461L506.027 -238.465L505.84 48.2536L511.824 48.2575Z" fill="#333333"/>
<path d="M1677.61 650.431L1683.6 650.435L1683.41 937.154L1677.43 937.15L1677.61 650.431ZM1700.69 937.165L1700.87 650.446L1694.89 650.442L1694.7 937.161L1700.69 937.165ZM1717.96 937.177L1718.15 650.457L1712.17 650.453L1711.98 937.173L1717.96 937.177ZM1735.24 937.188L1735.43 650.469L1729.44 650.465L1729.26 937.184L1735.24 937.188ZM1752.52 937.199L1752.7 650.48L1746.72 650.476L1746.53 937.195L1752.52 937.199ZM1769.79 937.21L1769.98 650.491L1764 650.487L1763.81 937.206L1769.79 937.21Z" fill="#262F56"/>
<path d="M586.827 -73.135C586.735 -73.1351 586.663 -73.2123 586.663 -73.3048C586.663 -73.3973 586.735 -73.4742 586.828 -73.4741C586.92 -73.4741 586.992 -73.3971 586.992 -73.3046C586.992 -73.2121 586.92 -73.135 586.827 -73.135ZM587.258 -103.658C587.259 -103.889 587.074 -104.079 586.847 -104.079C586.621 -104.079 586.436 -103.889 586.436 -103.658C586.436 -103.427 586.621 -103.237 586.847 -103.236C587.073 -103.236 587.258 -103.426 587.258 -103.658ZM587.525 -134.016C587.525 -134.386 587.232 -134.69 586.873 -134.69C586.513 -134.69 586.22 -134.387 586.219 -134.017C586.219 -133.647 586.512 -133.343 586.872 -133.343C587.232 -133.343 587.525 -133.646 587.525 -134.016ZM587.627 -164.374C587.627 -164.791 587.299 -165.13 586.892 -165.13C586.486 -165.131 586.157 -164.792 586.157 -164.375C586.157 -163.959 586.485 -163.619 586.891 -163.619C587.298 -163.619 587.627 -163.958 587.627 -164.374ZM587.565 -194.733C587.565 -195.103 587.272 -195.406 586.912 -195.406C586.552 -195.407 586.259 -195.104 586.259 -194.734C586.259 -194.364 586.551 -194.06 586.911 -194.06C587.271 -194.06 587.564 -194.363 587.565 -194.733ZM587.42 -225.091C587.42 -225.369 587.199 -225.595 586.932 -225.596C586.665 -225.596 586.443 -225.369 586.443 -225.092C586.443 -224.814 586.664 -224.588 586.931 -224.588C587.199 -224.588 587.42 -224.814 587.42 -225.091ZM587.193 -255.45C587.193 -255.589 587.085 -255.702 586.946 -255.702C586.808 -255.702 586.7 -255.589 586.699 -255.45C586.699 -255.311 586.807 -255.198 586.946 -255.198C587.085 -255.198 587.193 -255.311 587.193 -255.45ZM616.519 -12.5787C616.519 -12.7174 616.411 -12.8305 616.273 -12.8306C616.134 -12.8307 616.026 -12.7178 616.026 -12.579C616.026 -12.4402 616.134 -12.3269 616.272 -12.3268C616.411 -12.3267 616.519 -12.4399 616.519 -12.5787ZM617.027 -42.9368C617.028 -43.3532 616.699 -43.6925 616.293 -43.6928C615.887 -43.693 615.558 -43.3541 615.557 -42.9378C615.557 -42.5214 615.886 -42.1818 616.292 -42.1816C616.698 -42.1813 617.027 -42.5204 617.027 -42.9368ZM617.7 -73.2949C617.7 -74.0865 617.079 -74.7242 616.313 -74.7247C615.547 -74.7252 614.925 -74.0831 614.924 -73.2967C614.924 -72.5102 615.545 -71.8671 616.311 -71.8666C617.077 -71.8661 617.699 -72.5084 617.7 -73.2949ZM618.126 -103.653C618.126 -104.676 617.32 -105.504 616.328 -105.505C615.336 -105.505 614.528 -104.678 614.528 -103.655C614.527 -102.632 615.333 -101.804 616.326 -101.804C617.318 -101.803 618.125 -102.63 618.126 -103.653ZM618.392 -134.011C618.393 -135.173 617.479 -136.119 616.348 -136.12C615.217 -136.121 614.301 -135.181 614.301 -134.014C614.3 -132.847 615.214 -131.911 616.345 -131.91C617.476 -131.909 618.392 -132.849 618.392 -134.011ZM618.494 -164.37C618.495 -165.578 617.545 -166.56 616.373 -166.561C615.201 -166.562 614.244 -165.58 614.243 -164.372C614.243 -163.164 615.193 -162.182 616.37 -162.181C617.547 -162.181 618.494 -163.162 618.494 -164.37ZM618.432 -194.728C618.433 -195.89 617.518 -196.831 616.387 -196.832C615.257 -196.832 614.341 -195.892 614.34 -194.731C614.34 -193.569 615.254 -192.628 616.385 -192.627C617.516 -192.626 618.431 -193.566 618.432 -194.728ZM618.205 -225.087C618.206 -226.11 617.399 -226.938 616.407 -226.938C615.415 -226.939 614.607 -226.112 614.607 -225.089C614.606 -224.066 615.413 -223.238 616.405 -223.237C617.397 -223.237 618.204 -224.064 618.205 -225.087ZM617.819 -255.445C617.819 -256.237 617.198 -256.875 616.432 -256.875C615.666 -256.876 615.044 -256.234 615.043 -255.447C615.043 -254.661 615.664 -254.018 616.43 -254.017C617.196 -254.017 617.818 -254.659 617.819 -255.445ZM617.268 -285.804C617.268 -286.267 616.904 -286.647 616.451 -286.648C615.999 -286.648 615.634 -286.273 615.633 -285.805C615.633 -285.338 615.998 -284.962 616.45 -284.962C616.902 -284.961 617.268 -285.337 617.268 -285.804ZM616.717 -316.163C616.717 -316.302 616.609 -316.415 616.471 -316.415C616.332 -316.415 616.224 -316.302 616.224 -316.163C616.224 -316.025 616.332 -315.911 616.47 -315.911C616.609 -315.911 616.717 -316.024 616.717 -316.163ZM646.143 17.7735C646.143 17.5422 645.959 17.3518 645.732 17.3516C645.506 17.3515 645.321 17.5417 645.321 17.773C645.321 18.0043 645.506 18.1945 645.732 18.1947C645.958 18.1948 646.143 18.0049 646.143 17.7735ZM646.98 -12.5844C646.981 -13.2835 646.431 -13.8492 645.753 -13.8497C645.074 -13.8501 644.524 -13.2851 644.523 -12.586C644.523 -11.8869 645.073 -11.3211 645.751 -11.3207C646.43 -11.3203 646.98 -11.8853 646.98 -12.5844ZM647.817 -42.9423C647.818 -44.104 646.904 -45.0452 645.773 -45.046C644.642 -45.0467 643.727 -44.1067 643.726 -42.945C643.725 -41.7833 644.639 -40.8421 645.77 -40.8414C646.901 -40.8406 647.817 -41.7806 647.817 -42.9423ZM648.49 -73.3004C648.491 -74.8322 647.284 -76.0769 645.793 -76.0778C644.303 -76.0788 643.094 -74.8357 643.093 -73.3039C643.092 -71.7721 644.299 -70.5274 645.79 -70.5264C647.28 -70.5255 648.489 -71.7686 648.49 -73.3004ZM648.998 -103.659C649 -105.473 647.571 -106.944 645.813 -106.945C644.055 -106.946 642.626 -105.477 642.624 -103.663C642.623 -101.848 644.051 -100.377 645.809 -100.376C647.567 -100.375 648.997 -101.844 648.998 -103.659ZM649.347 -134.017C649.348 -136.016 647.776 -137.637 645.833 -137.638C643.89 -137.639 642.317 -136.021 642.315 -134.021C642.314 -132.022 643.886 -130.402 645.829 -130.4C647.772 -130.399 649.346 -132.017 649.347 -134.017ZM649.449 -164.375C649.45 -166.421 647.843 -168.082 645.853 -168.084C643.864 -168.085 642.254 -166.426 642.253 -164.38C642.251 -162.334 643.859 -160.672 645.848 -160.671C647.838 -160.67 649.448 -162.329 649.449 -164.375ZM649.387 -194.733C649.388 -196.733 647.816 -198.353 645.873 -198.355C643.93 -198.356 642.356 -196.738 642.355 -194.738C642.354 -192.738 643.925 -191.119 645.868 -191.117C647.811 -191.116 649.385 -192.734 649.387 -194.733ZM649.078 -225.092C649.079 -226.907 647.651 -228.378 645.893 -228.379C644.135 -228.38 642.705 -226.911 642.704 -225.096C642.702 -223.282 644.13 -221.811 645.888 -221.81C647.646 -221.809 649.076 -223.278 649.078 -225.092ZM648.609 -255.451C648.61 -256.983 647.403 -258.227 645.912 -258.228C644.421 -258.229 643.213 -256.986 643.212 -255.454C643.211 -253.923 644.418 -252.678 645.908 -252.677C647.399 -252.676 648.608 -253.919 648.609 -255.451ZM648.058 -285.81C648.059 -287.018 647.109 -288 645.937 -288.001C644.765 -288.002 643.813 -287.021 643.812 -285.813C643.812 -284.605 644.762 -283.622 645.934 -283.622C647.106 -283.621 648.057 -284.602 648.058 -285.81ZM647.261 -316.169C647.261 -316.914 646.676 -317.516 645.956 -317.516C645.236 -317.517 644.65 -316.916 644.649 -316.17C644.649 -315.425 645.234 -314.823 645.954 -314.823C646.674 -314.822 647.26 -315.423 647.261 -316.169ZM646.463 -346.528C646.463 -346.805 646.242 -347.032 645.975 -347.032C645.708 -347.032 645.487 -346.806 645.487 -346.528C645.486 -346.251 645.707 -346.025 645.974 -346.024C646.242 -346.024 646.463 -346.25 646.463 -346.528ZM675.608 48.1254C675.608 47.8941 675.423 47.7039 675.197 47.7037C674.971 47.7036 674.786 47.8935 674.786 48.1249C674.786 48.3562 674.971 48.5466 675.197 48.5468C675.423 48.5469 675.608 48.3567 675.608 48.1254ZM676.61 17.7676C676.61 16.976 675.989 16.3383 675.223 16.3378C674.457 16.3373 673.835 16.9793 673.834 17.7658C673.834 18.5522 674.455 19.1953 675.221 19.1958C675.987 19.1963 676.609 18.554 676.61 17.7676ZM677.611 -12.5903C677.612 -13.937 676.554 -15.0326 675.243 -15.0334C673.933 -15.0343 672.873 -13.9401 672.872 -12.5934C672.871 -11.2466 673.934 -10.151 675.24 -10.1502C676.546 -10.1493 677.61 -11.2435 677.611 -12.5903ZM678.531 -42.9479C678.532 -44.8087 677.068 -46.3159 675.264 -46.3171C673.459 -46.3182 671.993 -44.813 671.992 -42.9522C671.991 -41.0914 673.455 -39.5844 675.259 -39.5833C677.064 -39.5821 678.529 -41.0871 678.531 -42.9479ZM679.286 -73.3059C679.287 -75.583 677.494 -77.4296 675.284 -77.431C673.074 -77.4325 671.278 -75.5883 671.277 -73.3111C671.276 -71.034 673.068 -69.1874 675.279 -69.186C677.489 -69.1846 679.284 -71.0288 679.286 -73.3059ZM679.876 -103.664C679.878 -106.265 677.828 -108.379 675.299 -108.381C672.77 -108.382 670.718 -106.271 670.716 -103.67C670.714 -101.069 672.764 -98.955 675.293 -98.9534C677.822 -98.9517 679.874 -101.063 679.876 -103.664ZM680.225 -134.022C680.227 -136.813 678.033 -139.077 675.324 -139.078C672.615 -139.08 670.419 -136.82 670.417 -134.029C670.415 -131.237 672.609 -128.974 675.318 -128.973C678.027 -128.971 680.223 -131.231 680.225 -134.022ZM680.409 -164.381C680.411 -167.264 678.14 -169.599 675.344 -169.601C672.548 -169.603 670.274 -167.266 670.272 -164.387C670.27 -161.509 672.541 -159.168 675.337 -159.167C678.134 -159.165 680.407 -161.497 680.409 -164.381ZM680.264 -194.739C680.266 -197.53 678.073 -199.788 675.364 -199.79C672.655 -199.792 670.458 -197.532 670.457 -194.746C670.455 -191.96 672.648 -189.691 675.357 -189.689C678.066 -189.688 680.262 -191.948 680.264 -194.739ZM679.955 -225.098C679.957 -227.699 677.907 -229.813 675.378 -229.814C672.849 -229.816 670.797 -227.705 670.795 -225.104C670.793 -222.503 672.843 -220.389 675.372 -220.387C677.901 -220.386 679.953 -222.497 679.955 -225.098ZM679.404 -255.457C679.406 -257.734 677.613 -259.58 675.403 -259.582C673.192 -259.583 671.397 -257.739 671.396 -255.462C671.394 -253.185 673.187 -251.338 675.397 -251.337C677.608 -251.335 679.403 -253.18 679.404 -255.457ZM678.771 -285.815C678.773 -287.722 677.273 -289.266 675.422 -289.267C673.572 -289.268 672.07 -287.722 672.068 -285.82C672.067 -283.918 673.567 -282.37 675.418 -282.368C677.268 -282.367 678.77 -283.913 678.771 -285.815ZM677.974 -316.174C677.975 -317.614 676.84 -318.786 675.441 -318.787C674.043 -318.788 672.906 -317.622 672.906 -316.178C672.905 -314.733 674.04 -313.566 675.438 -313.565C676.836 -313.564 677.973 -314.73 677.974 -316.174ZM677.012 -346.533C677.012 -347.418 676.319 -348.133 675.461 -348.133C674.602 -348.134 673.908 -347.42 673.907 -346.536C673.907 -345.651 674.6 -344.936 675.458 -344.936C676.317 -344.935 677.011 -345.649 677.012 -346.533ZM675.968 -376.893C675.968 -377.17 675.747 -377.397 675.48 -377.397C675.212 -377.397 674.991 -377.171 674.991 -376.893C674.991 -376.616 675.212 -376.389 675.479 -376.389C675.746 -376.389 675.967 -376.615 675.968 -376.893ZM704.909 78.4721C704.909 78.3333 704.801 78.2203 704.662 78.2202C704.523 78.2201 704.415 78.333 704.415 78.4718C704.415 78.6106 704.523 78.7239 704.662 78.7239C704.8 78.724 704.908 78.6109 704.909 78.4721ZM705.91 48.1143C705.911 47.4152 705.361 46.8494 704.682 46.849C704.004 46.8486 703.453 47.4136 703.453 48.1127C703.453 48.8118 704.002 49.3775 704.681 49.378C705.359 49.3784 705.91 48.8134 705.91 48.1143ZM707.076 17.7566C707.077 16.4098 706.019 15.3142 704.708 15.3134C703.397 15.3125 702.338 16.4067 702.337 17.7535C702.336 19.1002 703.399 20.1958 704.705 20.1966C706.01 20.1975 707.075 19.1033 707.076 17.7566ZM708.16 -12.601C708.161 -14.5543 706.625 -16.1387 704.729 -16.1399C702.832 -16.1411 701.294 -14.5587 701.293 -12.6054C701.291 -10.6521 702.827 -9.068 704.724 -9.06676C706.621 -9.06553 708.159 -10.6477 708.16 -12.601ZM709.162 -42.9588C709.163 -45.4673 707.191 -47.5043 704.749 -47.5059C702.307 -47.5074 700.332 -45.473 700.331 -42.9646C700.329 -40.4561 702.307 -38.4193 704.743 -38.4178C707.18 -38.4162 709.16 -40.4504 709.162 -42.9588ZM709.999 -73.3167C710.001 -76.2929 707.658 -78.7053 704.769 -78.7071C701.881 -78.709 699.535 -76.2998 699.533 -73.3236C699.531 -70.3474 701.873 -67.935 704.762 -67.9332C707.651 -67.9313 709.997 -70.3405 709.999 -73.3167ZM710.671 -103.675C710.674 -107.021 708.038 -109.737 704.79 -109.739C701.541 -109.741 698.902 -107.029 698.9 -103.682C698.898 -100.336 701.533 -97.6203 704.782 -97.6182C708.03 -97.6161 710.669 -100.328 710.671 -103.675ZM711.102 -134.033C711.105 -137.611 708.29 -140.517 704.81 -140.519C701.33 -140.521 698.511 -137.619 698.509 -134.041C698.506 -130.464 701.321 -127.558 704.801 -127.555C708.281 -127.553 711.1 -130.455 711.102 -134.033ZM711.287 -164.391C711.289 -168.067 708.397 -171.045 704.835 -171.047C701.272 -171.049 698.377 -168.075 698.374 -164.4C698.372 -160.724 701.264 -157.746 704.826 -157.744C708.388 -157.742 711.284 -160.716 711.287 -164.391ZM711.142 -194.75C711.144 -198.328 708.329 -201.234 704.849 -201.236C701.369 -201.238 698.551 -198.336 698.548 -194.758C698.546 -191.181 701.361 -188.274 704.841 -188.272C708.321 -188.27 711.14 -191.172 711.142 -194.75ZM710.833 -225.109C710.835 -228.501 708.164 -231.253 704.869 -231.255C701.574 -231.257 698.899 -228.509 698.897 -225.116C698.895 -221.724 701.566 -218.972 704.861 -218.97C708.156 -218.968 710.831 -221.716 710.833 -225.109ZM710.2 -255.467C710.202 -258.49 707.823 -260.938 704.888 -260.94C701.953 -260.942 699.572 -258.497 699.57 -255.474C699.568 -252.452 701.946 -250.004 704.881 -250.002C707.816 -250 710.198 -252.45 710.2 -255.467ZM709.402 -285.826C709.404 -288.381 707.39 -290.459 704.907 -290.461C702.425 -290.462 700.408 -288.392 700.407 -285.832C700.405 -283.272 702.419 -281.2 704.901 -281.198C707.384 -281.196 709.4 -283.266 709.402 -285.826ZM708.522 -316.185C708.524 -318.231 706.916 -319.892 704.927 -319.894C702.937 -319.895 701.327 -318.236 701.326 -316.19C701.325 -314.144 702.933 -312.483 704.922 -312.482C706.911 -312.48 708.521 -314.139 708.522 -316.185ZM707.478 -346.544C707.479 -347.984 706.344 -349.157 704.946 -349.157C703.548 -349.158 702.411 -347.992 702.41 -346.548C702.409 -345.103 703.544 -343.936 704.942 -343.935C706.34 -343.934 707.477 -345.1 707.478 -346.544ZM706.352 -376.904C706.352 -377.695 705.731 -378.333 704.965 -378.334C704.199 -378.334 703.576 -377.692 703.576 -376.906C703.575 -376.119 704.197 -375.476 704.963 -375.476C705.729 -375.475 706.351 -376.117 706.352 -376.904ZM705.308 -407.263C705.308 -407.448 705.164 -407.597 704.979 -407.597C704.794 -407.597 704.65 -407.448 704.65 -407.263C704.649 -407.078 704.793 -406.924 704.978 -406.924C705.163 -406.924 705.307 -407.073 705.308 -407.263ZM734.881 78.4558C734.882 78.0394 734.553 77.6998 734.147 77.6996C733.741 77.6993 733.412 78.0384 733.411 78.4548C733.411 78.8712 733.74 79.2105 734.146 79.2108C734.552 79.211 734.881 78.8721 734.881 78.4558ZM736.212 48.0982C736.213 46.9364 735.298 45.9953 734.168 45.9945C733.037 45.9938 732.121 46.9338 732.12 48.0955C732.12 49.2572 733.034 50.1984 734.165 50.1991C735.296 50.1998 736.211 49.2599 736.212 48.0982ZM737.46 17.7405C737.462 15.8797 735.998 14.3727 734.193 14.3716C732.389 14.3704 730.923 15.8754 730.922 17.7362C730.921 19.597 732.385 21.104 734.189 21.1051C735.993 21.1063 737.459 19.6013 737.46 17.7405ZM738.626 -12.6172C738.628 -15.1257 736.656 -17.1624 734.214 -17.164C731.772 -17.1656 729.797 -15.1315 729.795 -12.623C729.794 -10.1145 731.766 -8.07755 734.208 -8.07596C736.65 -8.07436 738.625 -10.1088 738.626 -12.6172ZM739.71 -42.975C739.712 -46.09 737.262 -48.6154 734.234 -48.6173C731.207 -48.6193 728.753 -46.0972 728.751 -42.9822C728.749 -39.8672 731.199 -37.3416 734.227 -37.3396C737.255 -37.3376 739.708 -39.86 739.71 -42.975ZM740.712 -73.3329C740.714 -77.003 737.822 -79.9862 734.255 -79.9885C730.688 -79.9909 727.797 -77.0166 727.794 -73.3413C727.792 -69.666 730.684 -66.6877 734.246 -66.6853C737.808 -66.683 740.709 -69.6576 740.712 -73.3329ZM741.467 -103.691C741.469 -107.782 738.249 -111.1 734.275 -111.103C730.302 -111.105 727.077 -107.792 727.074 -103.7C727.071 -99.6083 730.292 -96.2909 734.265 -96.2883C738.239 -96.2857 741.464 -99.5989 741.467 -103.691ZM741.975 -134.049C741.978 -138.418 738.541 -141.962 734.295 -141.965C730.049 -141.967 726.608 -138.428 726.605 -134.059C726.603 -129.69 730.039 -126.146 734.285 -126.143C738.531 -126.14 741.972 -129.68 741.975 -134.049ZM742.241 -164.407C742.244 -168.915 738.695 -172.572 734.315 -172.575C729.936 -172.578 726.381 -168.925 726.379 -164.417C726.376 -159.909 729.925 -156.252 734.305 -156.25C738.684 -156.247 742.238 -159.899 742.241 -164.407ZM742.097 -194.766C742.1 -199.181 738.627 -202.766 734.335 -202.769C730.043 -202.772 726.566 -199.191 726.563 -194.776C726.56 -190.36 730.032 -186.775 734.324 -186.772C738.617 -186.77 742.094 -190.35 742.097 -194.766ZM741.628 -225.124C741.631 -229.262 738.374 -232.616 734.354 -232.618C730.335 -232.621 727.074 -229.267 727.071 -225.134C727.068 -221.001 730.325 -217.642 734.345 -217.64C738.364 -217.637 741.625 -220.987 741.628 -225.124ZM740.913 -255.483C740.915 -259.205 737.987 -262.219 734.379 -262.221C730.77 -262.224 727.838 -259.208 727.836 -255.492C727.834 -251.775 730.762 -248.756 734.37 -248.754C737.979 -248.751 740.91 -251.767 740.913 -255.483ZM739.951 -285.843C739.953 -289.004 737.467 -291.57 734.393 -291.572C731.319 -291.574 728.834 -289.011 728.832 -285.85C728.83 -282.688 731.317 -280.122 734.385 -280.12C737.454 -280.118 739.949 -282.681 739.951 -285.843ZM738.907 -316.202C738.908 -318.756 736.895 -320.834 734.412 -320.836C731.929 -320.837 729.913 -318.767 729.911 -316.208C729.909 -313.648 731.923 -311.575 734.406 -311.573C736.889 -311.571 738.905 -313.642 738.907 -316.202ZM737.78 -346.561C737.781 -348.468 736.281 -350.011 734.431 -350.012C732.58 -350.013 731.078 -348.467 731.077 -346.565C731.076 -344.663 732.576 -343.115 734.426 -343.114C736.277 -343.112 737.779 -344.659 737.78 -346.561ZM736.571 -376.92C736.572 -378.128 735.622 -379.11 734.45 -379.111C733.278 -379.112 732.326 -378.131 732.326 -376.923C732.325 -375.715 733.275 -374.732 734.447 -374.732C735.619 -374.731 736.571 -375.712 736.571 -376.92ZM735.363 -407.279C735.363 -407.788 734.962 -408.205 734.464 -408.205C733.965 -408.205 733.564 -407.789 733.564 -407.28C733.563 -406.771 733.964 -406.355 734.463 -406.355C734.961 -406.354 735.362 -406.77 735.363 -407.279ZM734.565 -437.638C734.565 -437.684 734.529 -437.721 734.483 -437.721C734.437 -437.721 734.401 -437.685 734.401 -437.638C734.401 -437.592 734.437 -437.556 734.483 -437.556C734.529 -437.556 734.565 -437.592 734.565 -437.638ZM763.771 108.792C763.771 108.699 763.699 108.622 763.606 108.622C763.514 108.622 763.442 108.699 763.442 108.792C763.442 108.884 763.513 108.961 763.606 108.961C763.699 108.962 763.77 108.884 763.771 108.792ZM765.019 78.4343C765.019 77.6427 764.398 77.005 763.632 77.0045C762.866 77.004 762.244 77.646 762.243 78.4324C762.243 79.2189 762.864 79.8617 763.63 79.8622C764.396 79.8627 765.018 79.2207 765.019 78.4343ZM766.344 48.0766C766.345 46.5448 765.138 45.3002 763.648 45.2992C762.157 45.2982 760.948 46.5413 760.947 48.0731C760.946 49.6049 762.153 50.8496 763.644 50.8506C765.135 50.8515 766.343 49.6084 766.344 48.0766ZM767.67 17.719C767.671 15.4419 765.879 13.5953 763.668 13.5939C761.458 13.5925 759.663 15.4367 759.661 17.7138C759.66 19.9909 761.452 21.8375 763.663 21.8389C765.873 21.8404 767.668 19.9962 767.67 17.719ZM768.918 -12.6387C768.92 -15.6149 766.578 -18.0272 763.689 -18.0291C760.8 -18.0309 758.454 -15.6217 758.452 -12.6455C758.45 -9.66926 760.793 -7.25695 763.682 -7.25507C766.571 -7.25318 768.916 -9.66244 768.918 -12.6387ZM770.166 -42.9963C770.169 -46.6665 767.282 -49.6497 763.709 -49.652C760.137 -49.6544 757.251 -46.68 757.249 -43.0047C757.246 -39.3295 760.133 -36.3511 763.701 -36.3488C767.268 -36.3465 770.164 -39.321 770.166 -42.9963ZM771.25 -73.3539C771.253 -77.6306 767.888 -81.1026 763.735 -81.1053C759.582 -81.108 756.213 -77.6404 756.21 -73.3637C756.207 -69.087 759.572 -65.6152 763.725 -65.6124C767.878 -65.6097 771.247 -69.0771 771.25 -73.3539ZM772.17 -103.712C772.173 -108.502 768.407 -112.386 763.755 -112.389C759.104 -112.392 755.333 -108.513 755.33 -103.723C755.327 -98.932 759.092 -95.0488 763.744 -95.0458C768.396 -95.0427 772.166 -98.921 772.17 -103.712ZM772.842 -134.07C772.846 -139.231 768.787 -143.418 763.771 -143.421C758.754 -143.424 754.695 -139.242 754.692 -134.082C754.688 -128.921 758.747 -124.734 763.758 -124.731C768.77 -124.728 772.839 -128.909 772.842 -134.07ZM773.109 -164.428C773.112 -169.728 768.941 -174.028 763.796 -174.031C758.65 -174.034 754.474 -169.74 754.47 -164.44C754.467 -159.141 758.638 -154.841 763.783 -154.837C768.929 -154.834 773.105 -159.128 773.109 -164.428ZM772.964 -194.787C772.967 -199.994 768.868 -204.217 763.815 -204.22C758.762 -204.223 754.658 -200.006 754.654 -194.799C754.651 -189.592 758.75 -185.369 763.803 -185.365C768.856 -185.362 772.961 -189.58 772.964 -194.787ZM772.331 -225.146C772.334 -229.983 768.528 -233.902 763.835 -233.905C759.142 -233.908 755.33 -229.988 755.327 -225.157C755.324 -220.325 759.13 -216.4 763.823 -216.397C768.516 -216.394 772.328 -220.314 772.331 -225.146ZM771.451 -255.505C771.454 -259.828 768.054 -263.335 763.854 -263.338C759.654 -263.341 756.249 -259.838 756.246 -255.515C756.244 -251.192 759.644 -247.684 763.844 -247.681C768.043 -247.678 771.448 -251.182 771.451 -255.505ZM770.407 -285.864C770.409 -289.585 767.481 -292.599 763.873 -292.602C760.265 -292.604 757.333 -289.589 757.33 -285.872C757.328 -282.156 760.256 -279.137 763.864 -279.134C767.473 -279.132 770.405 -282.147 770.407 -285.864ZM769.281 -316.223C769.283 -319.291 766.868 -321.781 763.887 -321.783C760.906 -321.785 758.488 -319.299 758.486 -316.23C758.484 -313.161 760.898 -310.672 763.88 -310.67C766.861 -310.668 769.279 -313.154 769.281 -316.223ZM767.995 -346.582C767.996 -348.905 766.168 -350.793 763.911 -350.795C761.654 -350.796 759.823 -348.911 759.822 -346.587C759.82 -344.264 761.649 -342.376 763.905 -342.375C766.162 -342.373 767.993 -344.259 767.995 -346.582ZM766.709 -376.941C766.71 -378.525 765.467 -379.805 763.93 -379.806C762.393 -379.807 761.148 -378.528 761.147 -376.945C761.146 -375.362 762.389 -374.081 763.926 -374.08C765.463 -374.079 766.708 -375.358 766.709 -376.941ZM765.423 -407.301C765.424 -408.139 764.766 -408.818 763.954 -408.818C763.142 -408.819 762.483 -408.14 762.483 -407.303C762.482 -406.465 763.14 -405.786 763.952 -405.785C764.764 -405.785 765.422 -406.463 765.423 -407.301ZM764.214 -437.66C764.214 -437.799 764.107 -437.912 763.968 -437.912C763.829 -437.912 763.721 -437.799 763.721 -437.66C763.721 -437.522 763.829 -437.408 763.967 -437.408C764.106 -437.408 764.214 -437.521 764.214 -437.66ZM793.502 108.77C793.502 108.539 793.317 108.349 793.096 108.348C792.875 108.348 792.685 108.538 792.685 108.77C792.684 109.001 792.869 109.191 793.096 109.191C793.322 109.191 793.502 109.001 793.502 108.77ZM794.91 78.4126C794.91 77.3897 794.104 76.5615 793.112 76.5609C792.12 76.5602 791.312 77.3873 791.311 78.4102C791.311 79.4332 792.117 80.2613 793.109 80.262C794.101 80.2626 794.909 79.4355 794.91 78.4126ZM796.317 48.055C796.318 46.2405 794.89 44.7696 793.132 44.7685C791.374 44.7673 789.944 46.2364 789.943 48.0509C789.942 49.8654 791.37 51.3365 793.128 51.3376C794.886 51.3388 796.316 49.8695 796.317 48.055ZM797.725 17.6975C797.727 15.0965 795.677 12.9825 793.148 12.9809C790.619 12.9792 788.567 15.0905 788.565 17.6915C788.563 20.2925 790.613 22.4067 793.142 22.4083C795.671 22.41 797.723 20.2984 797.725 17.6975ZM799.05 -12.6599C799.052 -16.0062 796.417 -18.722 793.169 -18.7241C789.92 -18.7263 787.281 -16.0139 787.279 -12.6676C787.277 -9.32127 789.912 -6.60572 793.161 -6.6036C796.409 -6.60148 799.048 -9.31359 799.05 -12.6599ZM800.381 -43.0175C800.384 -47.1092 797.163 -50.4268 793.189 -50.4294C789.216 -50.432 785.991 -47.1186 785.988 -43.0269C785.985 -38.9353 789.206 -35.6179 793.18 -35.6153C797.153 -35.6127 800.378 -38.9259 800.381 -43.0175ZM801.629 -73.3752C801.632 -78.1659 797.867 -82.0494 793.215 -82.0524C788.563 -82.0554 784.793 -78.1769 784.79 -73.3862C784.787 -68.5954 788.552 -64.712 793.204 -64.709C797.856 -64.706 801.626 -68.5845 801.629 -73.3752ZM802.795 -103.733C802.799 -109.171 798.52 -113.585 793.236 -113.588C787.951 -113.591 783.667 -109.184 783.663 -103.745C783.66 -98.307 787.939 -93.8938 793.223 -93.8903C798.507 -93.8869 802.792 -98.2945 802.795 -103.733ZM803.632 -134.091C803.636 -139.997 798.993 -144.786 793.256 -144.789C787.519 -144.793 782.87 -140.011 782.866 -134.104C782.862 -128.198 787.506 -123.41 793.242 -123.406C798.979 -123.402 803.629 -128.185 803.632 -134.091ZM804.063 -164.449C804.067 -170.587 799.239 -175.566 793.281 -175.569C787.324 -175.573 782.489 -170.601 782.485 -164.463C782.481 -158.326 787.309 -153.347 793.267 -153.343C799.224 -153.339 804.059 -158.312 804.063 -164.449ZM803.754 -194.808C803.758 -200.76 799.078 -205.585 793.296 -205.589C787.513 -205.592 782.827 -200.774 782.823 -194.821C782.819 -188.869 787.499 -184.044 793.282 -184.041C799.064 -184.037 803.75 -188.855 803.754 -194.808ZM802.957 -225.167C802.96 -230.651 798.645 -235.1 793.315 -235.104C787.984 -235.107 783.664 -230.664 783.66 -225.179C783.657 -219.695 787.972 -215.245 793.302 -215.242C798.632 -215.238 802.953 -219.682 802.957 -225.167ZM801.912 -255.526C801.916 -260.409 798.073 -264.365 793.334 -264.368C788.595 -264.371 784.747 -260.415 784.744 -255.537C784.741 -250.659 788.583 -246.693 793.322 -246.69C798.062 -246.687 801.909 -250.643 801.912 -255.526ZM800.704 -285.885C800.707 -290.069 797.414 -293.464 793.353 -293.467C789.292 -293.469 785.995 -290.079 785.992 -285.895C785.99 -281.71 789.282 -278.316 793.343 -278.313C797.404 -278.31 800.701 -281.701 800.704 -285.885ZM799.336 -316.244C799.338 -319.637 796.667 -322.389 793.372 -322.391C790.077 -322.393 787.402 -319.645 787.4 -316.252C787.398 -312.86 790.069 -310.108 793.364 -310.106C796.659 -310.104 799.334 -312.852 799.336 -316.244ZM798.05 -346.604C798.052 -349.256 795.966 -351.401 793.391 -351.403C790.815 -351.404 788.727 -349.257 788.725 -346.61C788.724 -343.962 790.809 -341.812 793.385 -341.811C795.96 -341.809 798.048 -343.956 798.05 -346.604ZM796.759 -376.963C796.76 -378.87 795.26 -380.413 793.41 -380.414C791.559 -380.415 790.057 -378.869 790.056 -376.967C790.055 -375.065 791.555 -373.517 793.405 -373.516C795.256 -373.515 796.758 -375.061 796.759 -376.963ZM795.309 -407.322C795.309 -408.392 794.467 -409.261 793.428 -409.262C792.39 -409.262 791.547 -408.394 791.546 -407.325C791.545 -406.256 792.388 -405.386 793.426 -405.386C794.464 -405.385 795.308 -406.253 795.309 -407.322ZM794.023 -437.682C794.023 -438.006 793.766 -438.273 793.453 -438.273C793.139 -438.273 792.882 -438.011 792.882 -437.682C792.881 -437.354 793.138 -437.091 793.452 -437.091C793.765 -437.091 794.023 -437.353 794.023 -437.682ZM823.228 108.748C823.228 108.378 822.936 108.075 822.576 108.075C822.216 108.074 821.923 108.377 821.923 108.748C821.922 109.118 822.215 109.421 822.575 109.421C822.935 109.422 823.228 109.118 823.228 108.748ZM824.636 78.3908C824.637 77.2291 823.722 76.2879 822.591 76.2872C821.46 76.2864 820.545 77.2264 820.544 78.3881C820.543 79.5498 821.458 80.4913 822.589 80.492C823.719 80.4928 824.635 79.5525 824.636 78.3908ZM826.126 48.0333C826.127 46.0337 824.555 44.4138 822.612 44.4125C820.669 44.4112 819.095 46.0291 819.094 48.0287C819.092 50.0283 820.664 51.6485 822.607 51.6498C824.55 51.651 826.124 50.0329 826.126 48.0333ZM827.533 17.676C827.535 14.8848 825.342 12.6216 822.633 12.6199C819.924 12.6181 817.728 14.8784 817.726 17.6696C817.724 20.4608 819.917 22.7237 822.626 22.7255C825.335 22.7272 827.532 20.4671 827.533 17.676ZM828.941 -12.6816C828.943 -16.2592 826.128 -19.1655 822.648 -19.1677C819.169 -19.17 816.35 -16.2726 816.347 -12.6898C816.345 -9.10702 819.16 -6.20615 822.64 -6.20388C826.12 -6.20161 828.939 -9.10395 828.941 -12.6816ZM830.349 -43.0392C830.352 -47.4084 826.915 -50.9523 822.669 -50.9551C818.423 -50.9579 814.982 -47.4184 814.979 -43.0492C814.977 -38.6799 818.413 -35.136 822.659 -35.1332C826.905 -35.1304 830.346 -38.6699 830.349 -43.0392ZM831.756 -73.3967C831.76 -78.5575 827.702 -82.7445 822.69 -82.7477C817.678 -82.751 813.615 -78.5694 813.611 -73.4085C813.608 -68.2477 817.666 -64.0608 822.678 -64.0575C827.69 -64.0543 831.753 -68.2359 831.756 -73.3967ZM833.082 -103.754C833.086 -109.661 828.442 -114.449 822.705 -114.453C816.969 -114.457 812.319 -109.674 812.315 -103.768C812.311 -97.8617 816.955 -93.0732 822.692 -93.0694C828.428 -93.0657 833.078 -97.8482 833.082 -103.754ZM834.33 -134.112C834.335 -140.712 829.141 -146.067 822.731 -146.071C816.321 -146.075 811.116 -140.727 811.112 -134.127C811.107 -127.527 816.301 -122.173 822.716 -122.168C829.131 -122.164 834.326 -127.512 834.33 -134.112ZM834.921 -164.47C834.925 -171.399 829.475 -177.016 822.746 -177.02C816.018 -177.025 810.56 -171.415 810.556 -164.486C810.551 -157.557 816.001 -151.94 822.73 -151.936C829.459 -151.931 834.916 -157.541 834.921 -164.47ZM834.37 -194.829C834.374 -201.429 829.181 -206.783 822.771 -206.788C816.361 -206.792 811.155 -201.444 811.151 -194.844C811.147 -188.244 816.34 -182.89 822.755 -182.885C829.17 -182.881 834.365 -188.229 834.37 -194.829ZM833.326 -225.188C833.329 -231.187 828.609 -236.047 822.785 -236.051C816.961 -236.055 812.234 -231.195 812.23 -225.202C812.226 -219.208 816.947 -214.337 822.771 -214.333C828.595 -214.33 833.322 -219.189 833.326 -225.188ZM832.04 -255.547C832.043 -260.801 827.908 -265.059 822.809 -265.063C817.71 -265.066 813.569 -260.813 813.566 -255.559C813.562 -250.306 817.697 -246.047 822.796 -246.044C827.896 -246.04 832.036 -250.294 832.04 -255.547ZM830.672 -285.907C830.675 -290.368 827.161 -293.989 822.828 -293.992C818.494 -293.995 814.976 -290.379 814.973 -285.917C814.97 -281.455 818.484 -277.834 822.817 -277.831C827.15 -277.828 830.669 -281.445 830.672 -285.907ZM829.304 -316.266C829.306 -319.936 826.414 -322.919 822.852 -322.922C819.289 -322.924 816.388 -319.95 816.386 -316.274C816.384 -312.599 819.276 -309.621 822.843 -309.619C826.41 -309.616 829.301 -312.591 829.304 -316.266ZM827.935 -346.625C827.937 -349.509 825.672 -351.844 822.871 -351.846C820.069 -351.848 817.801 -349.51 817.799 -346.632C817.797 -343.753 820.062 -341.413 822.864 -341.411C825.665 -341.409 827.934 -343.747 827.935 -346.625ZM826.485 -376.985C826.486 -379.031 824.879 -380.692 822.889 -380.693C820.9 -380.695 819.29 -379.035 819.289 -376.989C819.287 -374.944 820.895 -373.282 822.885 -373.281C824.874 -373.28 826.484 -374.939 826.485 -376.985ZM825.117 -407.344C825.118 -408.598 824.132 -409.617 822.913 -409.617C821.695 -409.618 820.708 -408.601 820.707 -407.347C820.706 -406.093 821.692 -405.074 822.91 -405.074C824.129 -405.073 825.116 -406.09 825.117 -407.344ZM823.749 -437.704C823.749 -438.166 823.385 -438.547 822.932 -438.547C822.48 -438.547 822.115 -438.172 822.114 -437.705C822.114 -437.237 822.479 -436.861 822.931 -436.861C823.383 -436.861 823.749 -437.236 823.749 -437.704ZM852.795 108.726C852.795 108.31 852.466 107.971 852.06 107.971C851.654 107.97 851.325 108.309 851.325 108.726C851.325 109.142 851.653 109.481 852.059 109.482C852.465 109.482 852.795 109.143 852.795 108.726ZM854.203 78.3689C854.203 77.161 853.253 76.1787 852.081 76.1779C850.909 76.1771 849.952 77.1582 849.952 78.3662C849.951 79.5741 850.901 80.5567 852.078 80.5574C853.255 80.5582 854.202 79.5769 854.203 78.3689ZM855.693 48.0117C855.694 45.9658 854.086 44.3045 852.097 44.3032C850.107 44.3019 848.497 45.9612 848.496 48.007C848.495 50.0528 850.103 51.7141 852.092 51.7154C854.081 51.7167 855.691 50.0575 855.693 48.0117ZM857.183 17.6542C857.184 14.7705 854.914 12.4354 852.118 12.4335C849.321 12.4317 847.048 14.769 847.046 17.6475C847.044 20.5261 849.309 22.8664 852.111 22.8682C854.912 22.87 857.181 20.5327 857.183 17.6542ZM858.59 -12.7034C858.593 -16.3736 855.706 -19.3568 852.138 -19.3591C848.571 -19.3614 845.675 -16.3871 845.673 -12.7118C845.67 -9.03654 848.562 -6.05846 852.13 -6.05614C855.697 -6.05381 858.588 -9.02811 858.59 -12.7034ZM860.08 -43.0609C860.083 -47.5689 856.533 -51.2259 852.154 -51.2288C847.774 -51.2316 844.22 -47.5793 844.217 -43.0713C844.214 -38.5633 847.764 -34.9063 852.143 -34.9034C856.523 -34.9005 860.077 -38.5529 860.08 -43.0609ZM861.488 -73.4185C861.491 -78.7181 857.32 -83.0181 852.175 -83.0214C847.029 -83.0248 842.853 -78.7303 842.849 -73.4306C842.846 -68.131 847.017 -63.8311 852.162 -63.8277C857.308 -63.8244 861.484 -68.1189 861.488 -73.4185ZM862.978 -103.776C862.982 -109.913 858.153 -114.892 852.195 -114.896C846.238 -114.9 841.398 -109.928 841.394 -103.79C841.39 -97.6526 846.218 -92.6736 852.181 -92.6697C858.144 -92.6658 862.974 -97.6385 862.978 -103.776ZM864.385 -134.134C864.39 -141.063 858.94 -146.679 852.211 -146.684C845.482 -146.688 840.025 -141.079 840.02 -134.149C840.016 -127.22 845.466 -121.603 852.195 -121.599C858.923 -121.595 864.381 -127.204 864.385 -134.134ZM865.387 -164.491C865.392 -171.976 859.505 -178.05 852.231 -178.055C844.958 -178.059 839.063 -171.998 839.058 -164.509C839.054 -157.019 844.945 -150.95 852.214 -150.945C859.482 -150.94 865.382 -157.007 865.387 -164.491ZM864.507 -194.85C864.512 -201.826 859.026 -207.478 852.251 -207.483C845.476 -207.487 839.982 -201.836 839.978 -194.866C839.973 -187.896 845.459 -182.238 852.234 -182.234C859.009 -182.23 864.503 -187.88 864.507 -194.85ZM863.139 -225.21C863.143 -231.393 858.279 -236.408 852.275 -236.412C846.271 -236.416 841.4 -231.407 841.396 -225.224C841.392 -219.04 846.256 -214.025 852.26 -214.021C858.264 -214.017 863.135 -219.026 863.139 -225.21ZM861.771 -255.569C861.775 -260.961 857.531 -265.338 852.294 -265.342C847.056 -265.345 842.807 -260.973 842.803 -255.581C842.8 -250.189 847.043 -245.812 852.281 -245.809C857.519 -245.805 861.768 -250.177 861.771 -255.569ZM860.321 -285.928C860.324 -290.483 856.738 -294.181 852.312 -294.184C847.887 -294.187 844.296 -290.498 844.293 -285.939C844.29 -281.379 847.876 -277.686 852.302 -277.684C856.727 -277.681 860.318 -281.369 860.321 -285.928ZM858.953 -316.288C858.955 -320.056 855.991 -323.106 852.336 -323.108C848.682 -323.11 845.714 -320.059 845.711 -316.296C845.709 -312.534 848.673 -309.478 852.327 -309.476C855.982 -309.474 858.95 -312.525 858.953 -316.288ZM857.502 -346.647C857.504 -349.577 855.198 -351.953 852.355 -351.955C849.513 -351.957 847.203 -349.584 847.201 -346.654C847.199 -343.724 849.506 -341.347 852.348 -341.346C855.191 -341.344 857.5 -343.717 857.502 -346.647ZM856.134 -377.007C856.136 -379.145 854.451 -380.878 852.374 -380.88C850.297 -380.881 848.61 -379.15 848.609 -377.011C848.608 -374.873 850.292 -373.14 852.369 -373.138C854.446 -373.137 856.133 -374.868 856.134 -377.007ZM854.684 -407.366C854.685 -408.666 853.663 -409.721 852.398 -409.722C851.133 -409.722 850.11 -408.669 850.109 -407.369C850.108 -406.069 851.13 -405.009 852.395 -405.008C853.659 -405.007 854.683 -406.06 854.684 -407.366ZM853.316 -437.725C853.316 -438.234 852.915 -438.651 852.417 -438.651C851.918 -438.651 851.517 -438.235 851.517 -437.726C851.516 -437.217 851.917 -436.801 852.416 -436.801C852.914 -436.8 853.315 -437.216 853.316 -437.725ZM882.197 108.705C882.198 108.335 881.905 108.031 881.545 108.031C881.185 108.031 880.892 108.334 880.892 108.704C880.892 109.074 881.184 109.377 881.544 109.377C881.904 109.378 882.197 109.075 882.197 108.705ZM883.605 78.3472C883.606 77.1855 882.691 76.2441 881.561 76.2433C880.43 76.2426 879.514 77.1828 879.513 78.3445C879.513 79.5062 880.427 80.4474 881.558 80.4482C882.689 80.4489 883.604 79.5089 883.605 78.3472ZM885.095 47.9897C885.096 45.9901 883.524 44.3699 881.581 44.3686C879.638 44.3674 878.064 45.9855 878.063 47.9851C878.062 49.9847 879.634 51.6049 881.577 51.6062C883.52 51.6074 885.094 49.9892 885.095 47.9897ZM886.503 17.6321C886.504 14.8409 884.311 12.5778 881.602 12.576C878.893 12.5742 876.697 14.8346 876.695 17.6257C876.693 20.4169 878.887 22.6801 881.596 22.6818C884.304 22.6836 886.501 20.4233 886.503 17.6321ZM887.91 -12.7255C887.913 -16.3031 885.098 -19.2091 881.618 -19.2114C878.138 -19.2136 875.319 -16.3164 875.317 -12.7337C875.314 -9.1509 878.129 -6.25001 881.609 -6.24774C885.089 -6.24547 887.908 -9.14782 887.91 -12.7255ZM889.4 -43.083C889.403 -47.4985 885.931 -51.0835 881.638 -51.0863C877.346 -51.0891 873.869 -47.5086 873.866 -43.0931C873.863 -38.6776 877.336 -35.0925 881.628 -35.0897C885.92 -35.0869 889.397 -38.6623 889.4 -43.083ZM890.808 -73.4405C890.811 -78.6476 886.712 -82.8704 881.659 -82.8737C876.606 -82.877 872.502 -78.6596 872.498 -73.4525C872.495 -68.2454 876.589 -64.0224 881.647 -64.0191C886.705 -64.0158 890.805 -68.2334 890.808 -73.4405ZM892.133 -103.798C892.137 -109.751 887.458 -114.575 881.675 -114.579C875.892 -114.583 871.206 -109.764 871.202 -103.812C871.198 -97.8594 875.878 -93.0348 881.661 -93.031C887.444 -93.0272 892.129 -97.8457 892.133 -103.798ZM893.299 -134.156C893.304 -140.756 888.11 -146.11 881.7 -146.115C875.291 -146.119 870.09 -140.771 870.086 -134.171C870.082 -127.571 875.275 -122.216 881.685 -122.212C888.095 -122.208 893.295 -127.556 893.299 -134.156ZM893.972 -164.514C893.977 -171.489 888.49 -177.142 881.716 -177.146C874.941 -177.151 869.447 -171.5 869.443 -164.53C869.438 -157.559 874.924 -151.902 881.699 -151.897C888.474 -151.893 893.968 -157.543 893.972 -164.514ZM893.503 -194.872C893.508 -201.565 888.243 -206.997 881.74 -207.001C875.238 -207.005 869.965 -201.58 869.961 -194.888C869.957 -188.195 875.222 -182.764 881.724 -182.759C888.227 -182.755 893.499 -188.18 893.503 -194.872ZM892.295 -225.232C892.299 -231.23 887.578 -236.091 881.754 -236.095C875.93 -236.099 871.203 -231.239 871.199 -225.245C871.195 -219.252 875.916 -214.381 881.74 -214.377C887.564 -214.373 892.291 -219.233 892.295 -225.232ZM891.009 -255.591C891.012 -260.844 886.877 -265.103 881.778 -265.107C876.679 -265.11 872.538 -260.856 872.535 -255.603C872.531 -250.35 876.666 -246.091 881.766 -246.088C886.865 -246.084 891.005 -250.338 891.009 -255.591ZM889.641 -285.95C889.644 -290.412 886.13 -294.033 881.797 -294.036C877.464 -294.039 873.945 -290.422 873.942 -285.961C873.94 -281.499 877.453 -277.878 881.786 -277.875C886.12 -277.872 889.638 -281.489 889.641 -285.95ZM888.273 -316.31C888.275 -319.98 885.383 -322.963 881.821 -322.966C878.259 -322.968 875.358 -319.994 875.355 -316.318C875.353 -312.643 878.245 -309.665 881.812 -309.663C885.38 -309.66 888.27 -312.635 888.273 -316.31ZM886.905 -346.669C886.907 -349.553 884.636 -351.888 881.84 -351.89C879.043 -351.892 876.77 -349.554 876.768 -346.676C876.766 -343.797 879.032 -341.457 881.833 -341.455C884.634 -341.453 886.903 -343.791 886.905 -346.669ZM885.537 -377.029C885.538 -379.121 883.894 -380.818 881.859 -380.819C879.823 -380.82 878.177 -379.125 878.176 -377.033C878.174 -374.941 879.818 -373.244 881.854 -373.243C883.889 -373.241 885.535 -374.936 885.537 -377.029ZM884.086 -407.388C884.087 -408.642 883.101 -409.661 881.883 -409.661C880.664 -409.662 879.677 -408.645 879.676 -407.391C879.675 -406.136 880.661 -405.118 881.88 -405.117C883.098 -405.116 884.085 -406.134 884.086 -407.388ZM882.718 -437.747C882.719 -438.21 882.354 -438.59 881.901 -438.591C881.449 -438.591 881.084 -438.216 881.084 -437.748C881.083 -437.28 881.448 -436.905 881.9 -436.905C882.353 -436.905 882.718 -437.279 882.718 -437.747ZM911.518 108.683C911.518 108.405 911.297 108.179 911.029 108.179C910.762 108.178 910.541 108.405 910.541 108.682C910.541 108.96 910.761 109.186 911.029 109.186C911.296 109.186 911.517 108.96 911.518 108.683ZM912.843 78.3251C912.844 77.3022 912.037 76.474 911.045 76.4734C910.053 76.4727 909.245 77.2998 909.245 78.3228C909.244 79.3457 910.051 80.1738 911.043 80.1745C912.035 80.1751 912.842 79.348 912.843 78.3251ZM914.251 47.9675C914.252 46.153 912.824 44.6819 911.066 44.6808C909.308 44.6796 907.878 46.1489 907.877 47.9634C907.875 49.7779 909.304 51.249 911.062 51.2502C912.82 51.2513 914.249 49.782 914.251 47.9675ZM915.658 17.61C915.66 15.009 913.61 12.895 911.081 12.8934C908.552 12.8917 906.5 15.003 906.498 17.604C906.497 20.205 908.546 22.3189 911.075 22.3206C913.604 22.3222 915.657 20.2109 915.658 17.61ZM917.066 -12.7476C917.068 -16.1402 914.397 -18.8918 911.102 -18.894C907.807 -18.8961 905.132 -16.148 905.13 -12.7554C905.128 -9.36281 907.799 -6.61091 911.094 -6.60876C914.389 -6.60661 917.064 -9.35502 917.066 -12.7476ZM918.391 -43.1052C918.394 -47.2431 915.137 -50.6019 911.118 -50.6045C907.098 -50.6071 903.842 -47.2526 903.839 -43.1147C903.837 -38.9768 907.093 -35.623 911.108 -35.6204C915.122 -35.6178 918.389 -38.9724 918.391 -43.1052ZM919.64 -73.4629C919.643 -78.2999 915.842 -82.2191 911.143 -82.2222C906.445 -82.2253 902.639 -78.3058 902.636 -73.474C902.633 -68.6421 906.439 -64.7175 911.132 -64.7144C915.825 -64.7113 919.636 -68.6259 919.64 -73.4629ZM920.806 -103.82C920.809 -109.305 916.494 -113.754 911.164 -113.758C905.834 -113.761 901.513 -109.318 901.509 -103.833C901.506 -98.3483 905.821 -93.8992 911.151 -93.8957C916.482 -93.8923 920.802 -98.3357 920.806 -103.82ZM921.725 -134.178C921.729 -140.177 917.008 -145.043 911.184 -145.047C905.36 -145.051 900.633 -140.191 900.629 -134.192C900.626 -128.193 905.346 -123.333 911.17 -123.329C916.994 -123.325 921.721 -128.185 921.725 -134.178ZM922.074 -164.537C922.078 -170.72 917.213 -175.735 911.21 -175.739C905.206 -175.743 900.335 -170.734 900.331 -164.551C900.327 -158.367 905.191 -153.352 911.195 -153.348C917.199 -153.344 922.07 -158.353 922.074 -164.537ZM921.765 -194.895C921.769 -200.894 917.048 -205.755 911.224 -205.758C905.4 -205.762 900.673 -200.902 900.669 -194.909C900.665 -188.915 905.386 -184.045 911.21 -184.041C917.034 -184.037 921.761 -188.896 921.765 -194.895ZM920.967 -225.254C920.971 -230.785 916.62 -235.276 911.243 -235.279C905.867 -235.283 901.51 -230.798 901.506 -225.267C901.503 -219.736 905.853 -215.246 911.23 -215.242C916.607 -215.239 920.964 -219.718 920.967 -225.254ZM919.841 -255.613C919.844 -260.497 916.002 -264.452 911.262 -264.455C906.523 -264.458 902.675 -260.503 902.672 -255.625C902.669 -250.746 906.511 -246.781 911.251 -246.778C915.99 -246.775 919.838 -250.73 919.841 -255.613ZM918.632 -285.973C918.635 -290.157 915.342 -293.551 911.281 -293.554C907.22 -293.557 903.923 -290.166 903.921 -285.982C903.918 -281.798 907.211 -278.403 911.271 -278.401C915.332 -278.398 918.629 -281.789 918.632 -285.973ZM917.341 -316.332C917.343 -319.771 914.636 -322.564 911.295 -322.566C907.954 -322.568 905.243 -319.779 905.241 -316.34C905.239 -312.901 907.946 -310.108 911.287 -310.106C914.628 -310.104 917.339 -312.893 917.341 -316.332ZM916.055 -346.691C916.057 -349.385 913.936 -351.576 911.319 -351.578C908.703 -351.579 906.578 -349.396 906.576 -346.698C906.575 -343.999 908.696 -341.813 911.313 -341.811C913.929 -341.809 916.053 -343.993 916.055 -346.691ZM914.687 -377.05C914.688 -378.958 913.188 -380.501 911.338 -380.502C909.487 -380.503 907.985 -378.957 907.984 -377.055C907.983 -375.153 909.483 -373.605 911.333 -373.604C913.184 -373.602 914.686 -375.149 914.687 -377.05ZM913.319 -407.41C913.32 -408.525 912.441 -409.431 911.357 -409.431C910.272 -409.432 909.393 -408.528 909.392 -407.412C909.391 -406.297 910.27 -405.392 911.354 -405.391C912.439 -405.39 913.318 -406.294 913.319 -407.41ZM911.951 -437.769C911.951 -438.093 911.694 -438.36 911.381 -438.361C911.067 -438.361 910.81 -438.099 910.81 -437.77C910.81 -437.441 911.067 -437.179 911.38 -437.179C911.694 -437.178 911.951 -437.44 911.951 -437.769ZM940.75 108.661C940.75 108.522 940.642 108.409 940.504 108.408C940.365 108.408 940.257 108.522 940.257 108.66C940.257 108.799 940.365 108.912 940.503 108.912C940.642 108.912 940.75 108.799 940.75 108.661ZM941.916 78.3029C941.917 77.5113 941.295 76.8736 940.529 76.8731C939.763 76.8726 939.141 77.5146 939.141 78.3011C939.14 79.0875 939.762 79.7304 940.528 79.7309C941.293 79.7314 941.916 79.0894 941.916 78.3029ZM943.242 47.9453C943.243 46.4135 942.036 45.1688 940.545 45.1678C939.054 45.1669 937.845 46.41 937.844 47.9418C937.843 49.4736 939.051 50.7182 940.541 50.7192C942.032 50.7202 943.241 49.4771 943.242 47.9453ZM944.567 17.5877C944.569 15.3105 942.776 13.464 940.566 13.4625C938.355 13.4611 936.56 15.3053 936.559 17.5824C936.557 19.8596 938.35 21.7061 940.56 21.7076C942.771 21.709 944.566 19.8648 944.567 17.5877ZM945.898 -12.77C945.9 -15.7924 943.521 -18.2406 940.586 -18.2425C937.651 -18.2444 935.27 -15.7942 935.268 -12.7769C935.266 -9.75955 937.644 -7.30602 940.579 -7.3041C943.514 -7.30219 945.896 -9.75262 945.898 -12.77ZM947.146 -43.1276C947.148 -46.8492 944.221 -49.8631 940.612 -49.8655C937.004 -49.8678 934.072 -46.8526 934.069 -43.1362C934.067 -39.4197 936.995 -36.4004 940.603 -36.3981C944.212 -36.3957 947.144 -39.4112 947.146 -43.1276ZM948.23 -73.4852C948.233 -77.8081 944.832 -81.316 940.633 -81.3187C936.433 -81.3215 933.028 -77.818 933.025 -73.4951C933.022 -69.1721 936.423 -65.6642 940.622 -65.6615C944.822 -65.6587 948.227 -69.1622 948.23 -73.4852ZM949.231 -103.843C949.235 -108.726 945.392 -112.687 940.653 -112.69C935.914 -112.693 932.066 -108.737 932.063 -103.854C932.06 -98.9709 935.902 -95.0156 940.641 -95.0125C945.381 -95.0094 949.228 -98.9649 949.231 -103.843ZM949.904 -134.201C949.908 -139.454 945.772 -143.719 940.673 -143.722C935.574 -143.725 931.433 -139.466 931.43 -134.213C931.427 -128.96 935.562 -124.701 940.661 -124.698C945.76 -124.694 949.901 -128.953 949.904 -134.201ZM950.171 -164.559C950.174 -169.951 945.931 -174.329 940.693 -174.332C935.455 -174.335 931.207 -169.969 931.203 -164.572C931.2 -159.174 935.443 -154.802 940.68 -154.799C945.918 -154.796 950.167 -159.167 950.171 -164.559ZM949.944 -194.918C949.947 -200.171 945.812 -204.435 940.713 -204.439C935.614 -204.442 931.473 -200.183 931.47 -194.93C931.466 -189.677 935.601 -185.413 940.7 -185.409C945.8 -185.406 949.94 -189.659 949.944 -194.918ZM949.311 -225.277C949.314 -230.16 945.472 -234.115 940.732 -234.119C935.993 -234.122 932.145 -230.166 932.142 -225.288C932.139 -220.41 935.981 -216.444 940.721 -216.441C945.46 -216.438 949.307 -220.394 949.311 -225.277ZM948.513 -255.636C948.516 -260.051 945.044 -263.636 940.751 -263.639C936.459 -263.642 932.982 -260.061 932.979 -255.646C932.976 -251.231 936.449 -247.645 940.741 -247.643C945.033 -247.64 948.51 -251.22 948.513 -255.636ZM947.387 -285.995C947.389 -289.763 944.425 -292.813 940.77 -292.815C937.116 -292.818 934.148 -289.766 934.145 -286.004C934.143 -282.241 937.107 -279.181 940.762 -279.178C944.416 -279.176 947.384 -282.227 947.387 -285.995ZM946.26 -316.354C946.262 -319.469 943.812 -321.995 940.784 -321.997C937.757 -321.999 935.303 -319.476 935.301 -316.361C935.299 -313.246 937.749 -310.721 940.777 -310.719C943.805 -310.717 946.258 -313.239 946.26 -316.354ZM944.969 -346.713C944.971 -349.083 943.106 -351.007 940.803 -351.008C938.5 -351.01 936.633 -349.088 936.632 -346.719C936.63 -344.349 938.495 -342.426 940.798 -342.424C943.101 -342.423 944.968 -344.344 944.969 -346.713ZM943.683 -377.073C943.684 -378.702 942.405 -380.019 940.822 -380.02C939.239 -380.021 937.958 -378.701 937.957 -377.076C937.956 -375.452 939.235 -374.13 940.818 -374.129C942.402 -374.128 943.682 -375.448 943.683 -377.073ZM942.398 -407.432C942.398 -408.316 941.705 -409.031 940.846 -409.032C939.988 -409.032 939.293 -408.318 939.293 -407.434C939.292 -406.55 939.986 -405.835 940.844 -405.834C941.703 -405.834 942.397 -406.548 942.398 -407.432ZM941.112 -437.791C941.112 -437.93 941.004 -438.043 940.865 -438.044C940.726 -438.044 940.618 -437.93 940.618 -437.792C940.618 -437.653 940.726 -437.54 940.865 -437.54C941.004 -437.539 941.112 -437.653 941.112 -437.791ZM970.83 78.2859C970.831 77.8232 970.466 77.4425 970.014 77.4423C969.561 77.442 969.196 77.817 969.196 78.2848C969.195 78.7526 969.56 79.1279 970.013 79.1282C970.465 79.1284 970.83 78.7536 970.83 78.2859ZM972.156 47.9282C972.157 46.7203 971.206 45.7377 970.034 45.737C968.862 45.7362 967.911 46.7175 967.91 47.9255C967.909 49.1334 968.86 50.1157 970.032 50.1165C971.203 50.1173 972.155 49.1362 972.156 47.9282ZM973.404 17.5706C973.405 15.6635 971.905 14.1205 970.055 14.1193C968.204 14.1181 966.702 15.6643 966.701 17.5662C966.7 19.4681 968.2 21.0163 970.05 21.0175C971.901 21.0187 973.403 19.4725 973.404 17.5706ZM974.57 -12.7871C974.572 -15.347 972.558 -17.42 970.076 -17.4216C967.593 -17.4232 965.576 -15.3529 965.575 -12.793C965.573 -10.2332 967.587 -8.16044 970.07 -8.15882C972.552 -8.1572 974.569 -10.2273 974.57 -12.7871ZM975.654 -43.1449C975.656 -46.3062 973.17 -48.8729 970.096 -48.8749C967.022 -48.8769 964.533 -46.3134 964.53 -43.1522C964.528 -39.9909 967.015 -37.4242 970.089 -37.4222C973.162 -37.4202 975.652 -39.9837 975.654 -43.1449ZM976.656 -73.5028C976.658 -77.2243 973.73 -80.2385 970.122 -80.2408C966.513 -80.2432 963.581 -77.2277 963.579 -73.5113C963.576 -69.7949 966.504 -66.7756 970.113 -66.7732C973.721 -66.7709 976.653 -69.7864 976.656 -73.5028ZM977.493 -103.861C977.495 -108.045 974.203 -111.439 970.142 -111.442C966.081 -111.445 962.784 -108.054 962.781 -103.87C962.779 -99.6861 966.071 -96.2913 970.132 -96.2886C974.193 -96.286 977.49 -99.6765 977.493 -103.861ZM978.001 -134.219C978.004 -138.681 974.49 -142.302 970.157 -142.304C965.824 -142.307 962.305 -138.691 962.303 -134.229C962.3 -129.767 965.813 -126.146 970.146 -126.143C974.48 -126.141 977.998 -129.757 978.001 -134.219ZM978.185 -164.577C978.188 -169.131 974.603 -172.83 970.177 -172.832C965.751 -172.835 962.161 -169.147 962.158 -164.587C962.155 -160.028 965.74 -156.335 970.166 -156.332C974.592 -156.329 978.182 -160.018 978.185 -164.577ZM978.04 -194.936C978.043 -199.397 974.53 -203.018 970.197 -203.021C965.863 -203.024 962.345 -199.408 962.342 -194.946C962.339 -190.484 965.853 -186.863 970.186 -186.86C974.519 -186.857 978.038 -190.474 978.04 -194.936ZM977.572 -225.294C977.575 -229.479 974.282 -232.873 970.221 -232.876C966.16 -232.879 962.863 -229.488 962.86 -225.304C962.858 -221.12 966.15 -217.725 970.211 -217.723C974.272 -217.72 977.569 -221.11 977.572 -225.294ZM976.857 -255.653C976.859 -259.421 973.895 -262.471 970.24 -262.474C966.586 -262.476 963.618 -259.425 963.615 -255.662C963.613 -251.899 966.577 -248.839 970.232 -248.836C973.886 -248.834 976.854 -251.885 976.857 -255.653ZM975.977 -286.012C975.979 -289.266 973.416 -291.905 970.26 -291.907C967.104 -291.909 964.537 -289.274 964.535 -286.02C964.533 -282.766 967.096 -280.127 970.252 -280.125C973.408 -280.123 975.975 -282.759 975.977 -286.012ZM974.85 -316.372C974.852 -318.973 972.803 -321.087 970.274 -321.088C967.745 -321.09 965.692 -318.979 965.69 -316.378C965.689 -313.777 967.738 -311.663 970.267 -311.661C972.796 -311.659 974.849 -313.771 974.85 -316.372ZM973.724 -346.731C973.725 -348.684 972.189 -350.268 970.293 -350.269C968.396 -350.271 966.858 -348.689 966.856 -346.735C966.855 -344.782 968.391 -343.198 970.288 -343.196C972.185 -343.195 973.723 -344.777 973.724 -346.731ZM972.597 -377.09C972.598 -378.39 971.576 -379.445 970.312 -379.446C969.047 -379.446 968.023 -378.393 968.023 -377.093C968.022 -375.793 969.044 -374.733 970.309 -374.732C971.573 -374.731 972.597 -375.784 972.597 -377.09ZM971.312 -407.449C971.312 -408.009 970.875 -408.462 970.331 -408.462C969.786 -408.463 969.348 -408.011 969.348 -407.45C969.348 -406.89 969.784 -406.438 970.329 -406.437C970.874 -406.437 971.311 -406.889 971.312 -407.449ZM970.432 -437.808C970.432 -437.854 970.396 -437.89 970.35 -437.89C970.303 -437.891 970.267 -437.854 970.267 -437.808C970.267 -437.762 970.303 -437.726 970.35 -437.726C970.396 -437.726 970.432 -437.762 970.432 -437.808ZM999.739 78.2686C999.739 78.1298 999.631 78.0168 999.493 78.0167C999.354 78.0166 999.246 78.1295 999.246 78.2683C999.246 78.407 999.354 78.5203 999.492 78.5204C999.631 78.5205 999.739 78.4074 999.739 78.2686ZM1000.82 47.9108C1000.82 47.1655 1000.24 46.5639 999.518 46.5634C998.799 46.5629 998.212 47.1638 998.212 47.9091C998.211 48.6544 998.797 49.2563 999.517 49.2568C1000.24 49.2572 1000.82 48.6561 1000.82 47.9108ZM1002.07 17.5531C1002.07 16.1138 1000.94 14.9413 999.539 14.9404C998.141 14.9395 997.004 16.1054 997.003 17.5498C997.002 18.9942 998.137 20.1619 999.536 20.1628C1000.93 20.1637 1002.07 18.9975 1002.07 17.5531ZM1003.16 -12.8044C1003.16 -14.8502 1001.55 -16.5116 999.559 -16.5129C997.57 -16.5142 995.96 -14.8549 995.959 -12.8091C995.958 -10.7633 997.565 -9.1072 999.555 -9.10591C1001.54 -9.10461 1003.15 -10.7637 1003.16 -12.8044ZM1004.07 -43.1623C1004.08 -45.7221 1002.06 -47.7951 999.58 -47.7967C997.097 -47.7984 995.081 -45.728 995.079 -43.1682C995.077 -40.6083 997.091 -38.5356 999.574 -38.534C1002.06 -38.5323 1004.07 -40.6024 1004.07 -43.1623ZM1004.99 -73.5202C1005 -76.5889 1002.58 -79.0784 999.6 -79.0803C996.619 -79.0823 994.201 -76.596 994.199 -73.5272C994.197 -70.4585 996.612 -67.969 999.593 -67.967C1002.57 -67.9651 1004.99 -70.4514 1004.99 -73.5202ZM1005.58 -103.878C1005.59 -107.271 1002.92 -110.023 999.62 -110.025C996.326 -110.027 993.651 -107.279 993.649 -103.886C993.646 -100.493 996.318 -97.7416 999.612 -97.7394C1002.91 -97.7373 1005.58 -100.486 1005.58 -103.878ZM1006.09 -134.236C1006.09 -137.907 1003.2 -140.89 999.641 -140.892C996.078 -140.894 993.182 -137.92 993.18 -134.245C993.178 -130.57 996.065 -127.591 999.632 -127.589C1003.2 -127.587 1006.09 -130.561 1006.09 -134.236ZM1006.28 -164.595C1006.28 -168.363 1003.32 -171.418 999.661 -171.42C996.006 -171.423 993.038 -168.371 993.035 -164.603C993.033 -160.836 995.997 -157.785 999.652 -157.783C1003.31 -157.781 1006.27 -160.832 1006.28 -164.595ZM1006.13 -194.953C1006.13 -198.624 1003.24 -201.607 999.68 -201.609C996.118 -201.611 993.222 -198.637 993.22 -194.962C993.217 -191.286 996.104 -188.308 999.672 -188.306C1003.24 -188.304 1006.13 -191.278 1006.13 -194.953ZM1005.74 -225.312C1005.74 -228.751 1003.04 -231.544 999.695 -231.546C996.353 -231.548 993.643 -228.759 993.64 -225.32C993.638 -221.881 996.345 -219.088 999.686 -219.086C1003.03 -219.084 1005.74 -221.873 1005.74 -225.312ZM1005.19 -255.671C1005.19 -258.786 1002.74 -261.311 999.714 -261.313C996.686 -261.315 994.233 -258.793 994.231 -255.678C994.229 -252.563 996.679 -250.038 999.707 -250.036C1002.73 -250.034 1005.19 -252.556 1005.19 -255.671ZM1004.31 -286.03C1004.31 -288.631 1002.26 -290.745 999.733 -290.746C997.204 -290.748 995.152 -288.637 995.15 -286.036C995.148 -283.435 997.198 -281.321 999.727 -281.319C1002.26 -281.317 1004.31 -283.429 1004.31 -286.03ZM1003.43 -316.389C1003.43 -318.481 1001.79 -320.178 999.752 -320.18C997.717 -320.181 996.071 -318.486 996.07 -316.394C996.068 -314.302 997.712 -312.604 999.747 -312.603C1001.78 -312.601 1003.43 -314.297 1003.43 -316.389ZM1002.39 -346.748C1002.39 -348.234 1001.22 -349.442 999.771 -349.443C998.327 -349.444 997.154 -348.237 997.153 -346.751C997.152 -345.266 998.324 -344.057 999.768 -344.056C1001.21 -344.055 1002.39 -345.262 1002.39 -346.748ZM1001.26 -377.107C1001.26 -377.945 1000.6 -378.624 999.79 -378.625C998.978 -378.625 998.32 -377.947 998.319 -377.109C998.319 -376.271 998.976 -375.592 999.788 -375.592C1000.6 -375.591 1001.26 -376.269 1001.26 -377.107ZM1000.13 -407.466C1000.13 -407.651 999.989 -407.801 999.804 -407.801C999.619 -407.801 999.475 -407.652 999.475 -407.467C999.475 -407.282 999.619 -407.127 999.804 -407.127C999.989 -407.127 1000.13 -407.276 1000.13 -407.466ZM1029.48 47.8986C1029.48 47.621 1029.26 47.3947 1028.99 47.3946C1028.72 47.3944 1028.5 47.6204 1028.5 47.898C1028.5 48.1755 1028.72 48.4021 1028.99 48.4023C1029.26 48.4025 1029.48 48.1762 1029.48 47.8986ZM1030.56 17.5411C1030.56 16.657 1029.87 15.9418 1029.01 15.9413C1028.15 15.9407 1027.46 16.6549 1027.46 17.5391C1027.46 18.4232 1028.15 19.1381 1029.01 19.1386C1029.87 19.1392 1030.56 18.4252 1030.56 17.5411ZM1031.57 -12.8167C1031.57 -14.256 1030.43 -15.4288 1029.03 -15.4297C1027.63 -15.4306 1026.5 -14.2645 1026.5 -12.8201C1026.5 -11.3756 1027.63 -10.208 1029.03 -10.2071C1030.43 -10.2062 1031.56 -11.3723 1031.57 -12.8167ZM1032.4 -43.1747C1032.4 -45.0817 1030.9 -46.6248 1029.05 -46.626C1027.2 -46.6272 1025.7 -45.081 1025.7 -43.1791C1025.7 -41.2772 1027.2 -39.729 1029.05 -39.7278C1030.9 -39.7266 1032.4 -41.2728 1032.4 -43.1747ZM1033.16 -73.5327C1033.16 -75.8561 1031.33 -77.7437 1029.07 -77.7452C1026.82 -77.7467 1024.99 -75.8614 1024.98 -73.538C1024.98 -71.2146 1026.81 -69.327 1029.07 -69.3255C1031.32 -69.324 1033.16 -71.2093 1033.16 -73.5327ZM1033.75 -103.891C1033.75 -106.543 1031.66 -108.688 1029.09 -108.69C1026.51 -108.691 1024.43 -106.544 1024.42 -103.897C1024.42 -101.25 1026.51 -99.0996 1029.08 -99.0979C1031.66 -99.0962 1033.75 -101.244 1033.75 -103.891ZM1034.18 -134.249C1034.18 -137.133 1031.92 -139.468 1029.11 -139.47C1026.31 -139.471 1024.04 -137.139 1024.04 -134.256C1024.04 -131.372 1026.31 -129.037 1029.11 -129.035C1031.9 -129.033 1034.18 -131.37 1034.18 -134.249ZM1034.28 -164.607C1034.28 -167.537 1031.98 -169.914 1029.13 -169.915C1026.29 -169.917 1023.98 -167.544 1023.98 -164.614C1023.98 -161.684 1026.28 -159.308 1029.13 -159.306C1031.97 -159.304 1034.28 -161.677 1034.28 -164.607ZM1034.22 -194.966C1034.22 -197.85 1031.96 -200.185 1029.15 -200.187C1026.35 -200.188 1024.08 -197.851 1024.08 -194.973C1024.08 -192.094 1026.35 -189.753 1029.15 -189.752C1031.94 -189.75 1034.22 -192.087 1034.22 -194.966ZM1033.91 -225.324C1033.91 -228.023 1031.79 -230.209 1029.17 -230.211C1026.56 -230.212 1024.43 -228.029 1024.43 -225.331C1024.43 -222.632 1026.55 -220.446 1029.17 -220.444C1031.78 -220.442 1033.91 -222.626 1033.91 -225.324ZM1033.36 -255.683C1033.36 -258.053 1031.5 -259.977 1029.19 -259.978C1026.89 -259.98 1025.02 -258.058 1025.02 -255.689C1025.02 -253.319 1026.88 -251.395 1029.19 -251.394C1031.49 -251.392 1033.36 -253.314 1033.36 -255.683ZM1032.64 -286.042C1032.64 -287.995 1031.11 -289.58 1029.21 -289.581C1027.32 -289.582 1025.78 -288 1025.78 -286.047C1025.77 -284.093 1027.31 -282.509 1029.21 -282.508C1031.1 -282.507 1032.64 -284.089 1032.64 -286.042ZM1031.85 -316.401C1031.85 -317.887 1030.68 -319.096 1029.23 -319.096C1027.79 -319.097 1026.61 -317.89 1026.61 -316.405C1026.61 -314.919 1027.78 -313.71 1029.23 -313.709C1030.67 -313.709 1031.84 -314.916 1031.85 -316.401ZM1030.88 -346.76C1030.88 -347.691 1030.16 -348.447 1029.25 -348.447C1028.35 -348.448 1027.62 -347.693 1027.61 -346.762C1027.61 -345.832 1028.34 -345.076 1029.25 -345.075C1030.15 -345.075 1030.88 -345.83 1030.88 -346.76ZM1029.84 -377.119C1029.84 -377.443 1029.58 -377.711 1029.27 -377.711C1028.96 -377.711 1028.7 -377.449 1028.7 -377.12C1028.7 -376.791 1028.96 -376.529 1029.27 -376.529C1029.58 -376.529 1029.84 -376.79 1029.84 -377.119ZM1058.98 17.5338C1058.98 17.2562 1058.76 17.0299 1058.5 17.0297C1058.23 17.0295 1058.01 17.2556 1058.01 17.5331C1058.01 17.8107 1058.23 18.037 1058.5 18.0372C1058.76 18.0374 1058.98 17.8113 1058.98 17.5338ZM1059.9 -12.8241C1059.9 -13.6157 1059.28 -14.2534 1058.52 -14.2539C1057.75 -14.2544 1057.13 -13.6124 1057.13 -12.8259C1057.13 -12.0395 1057.75 -11.3964 1058.52 -11.3959C1059.28 -11.3954 1059.9 -12.0377 1059.9 -12.8241ZM1060.66 -43.1821C1060.66 -44.3901 1059.71 -45.3724 1058.54 -45.3731C1057.37 -45.3739 1056.41 -44.3928 1056.41 -43.1849C1056.41 -41.9769 1057.36 -40.9944 1058.53 -40.9936C1059.71 -40.9928 1060.66 -41.9741 1060.66 -43.1821ZM1061.33 -73.5399C1061.33 -75.1231 1060.09 -76.404 1058.55 -76.405C1057.02 -76.406 1055.77 -75.1267 1055.77 -73.5435C1055.77 -71.9603 1057.01 -70.6797 1058.55 -70.6787C1060.09 -70.6777 1061.33 -71.9567 1061.33 -73.5399ZM1061.92 -103.898C1061.92 -105.805 1060.42 -107.348 1058.57 -107.349C1056.72 -107.351 1055.22 -105.804 1055.22 -103.902C1055.22 -102 1056.72 -100.452 1058.57 -100.451C1060.42 -100.45 1061.92 -101.996 1061.92 -103.898ZM1062.19 -134.256C1062.19 -136.302 1060.58 -137.963 1058.59 -137.965C1056.6 -137.966 1054.99 -136.307 1054.99 -134.261C1054.99 -132.215 1056.6 -130.554 1058.59 -130.553C1060.58 -130.551 1062.19 -132.21 1062.19 -134.256ZM1062.37 -164.615C1062.37 -166.753 1060.69 -168.487 1058.61 -168.488C1056.54 -168.489 1054.85 -166.758 1054.85 -164.62C1054.85 -162.481 1056.53 -160.748 1058.61 -160.747C1060.68 -160.745 1062.37 -162.476 1062.37 -164.615ZM1062.31 -194.973C1062.31 -197.065 1060.66 -198.763 1058.63 -198.764C1056.6 -198.765 1054.95 -197.07 1054.95 -194.978C1054.95 -192.886 1056.59 -191.188 1058.63 -191.187C1060.66 -191.186 1062.31 -192.881 1062.31 -194.973ZM1062 -225.332C1062 -227.239 1060.5 -228.782 1058.65 -228.783C1056.8 -228.784 1055.3 -227.238 1055.3 -225.336C1055.3 -223.434 1056.8 -221.886 1058.65 -221.885C1060.5 -221.884 1062 -223.43 1062 -225.332ZM1061.53 -255.691C1061.53 -257.32 1060.25 -258.637 1058.67 -258.638C1057.09 -258.639 1055.81 -257.319 1055.81 -255.694C1055.81 -254.07 1057.08 -252.748 1058.67 -252.747C1060.25 -252.746 1061.53 -254.066 1061.53 -255.691ZM1060.98 -286.05C1060.98 -287.35 1059.96 -288.41 1058.7 -288.41C1057.43 -288.411 1056.41 -287.358 1056.41 -286.053C1056.41 -284.747 1057.43 -283.692 1058.69 -283.691C1059.96 -283.691 1060.98 -284.744 1060.98 -286.05ZM1060.18 -316.408C1060.18 -317.246 1059.53 -317.925 1058.71 -317.926C1057.9 -317.926 1057.24 -317.248 1057.24 -316.41C1057.24 -315.572 1057.9 -314.894 1058.71 -314.893C1059.53 -314.892 1060.18 -315.57 1060.18 -316.408ZM1059.3 -346.767C1059.3 -347.091 1059.05 -347.359 1058.73 -347.359C1058.42 -347.359 1058.16 -347.097 1058.16 -346.768C1058.16 -346.439 1058.42 -346.177 1058.73 -346.177C1059.05 -346.176 1059.3 -346.438 1059.3 -346.767ZM1058.84 -377.126C1058.84 -377.172 1058.8 -377.208 1058.75 -377.208C1058.71 -377.209 1058.67 -377.172 1058.67 -377.126C1058.67 -377.08 1058.71 -377.044 1058.75 -377.044C1058.8 -377.044 1058.84 -377.08 1058.84 -377.126ZM1088.32 -12.8312C1088.32 -13.0162 1088.18 -13.1706 1088 -13.1707C1087.81 -13.1709 1087.67 -13.0218 1087.67 -12.8316C1087.67 -12.6414 1087.81 -12.4975 1088 -12.4973C1088.18 -12.4972 1088.32 -12.6461 1088.32 -12.8312ZM1088.91 -43.1893C1088.92 -43.7033 1088.51 -44.1147 1088.02 -44.115C1087.52 -44.1153 1087.12 -43.6993 1087.12 -43.1905C1087.12 -42.6816 1087.52 -42.265 1088.01 -42.2647C1088.51 -42.2644 1088.91 -42.6804 1088.91 -43.1893ZM1089.51 -73.5474C1089.51 -74.3852 1088.85 -75.064 1088.04 -75.0646C1087.22 -75.0651 1086.57 -74.3872 1086.56 -73.5493C1086.56 -72.7114 1087.22 -72.0324 1088.03 -72.0319C1088.85 -72.0313 1089.5 -72.7095 1089.51 -73.5474ZM1089.93 -103.906C1089.93 -104.975 1089.09 -105.844 1088.05 -105.845C1087.01 -105.845 1086.17 -104.977 1086.17 -103.908C1086.17 -102.839 1087.01 -101.97 1088.05 -101.969C1089.09 -101.968 1089.93 -102.836 1089.93 -103.906ZM1090.28 -134.264C1090.28 -135.518 1089.29 -136.536 1088.08 -136.537C1086.86 -136.538 1085.87 -135.521 1085.87 -134.267C1085.87 -133.013 1086.85 -131.994 1088.07 -131.993C1089.29 -131.992 1090.28 -133.01 1090.28 -134.264ZM1090.38 -164.622C1090.38 -165.923 1089.36 -166.982 1088.1 -166.983C1086.83 -166.984 1085.81 -165.931 1085.81 -164.625C1085.81 -163.319 1086.83 -162.265 1088.09 -162.264C1089.36 -162.263 1090.38 -163.316 1090.38 -164.622ZM1090.32 -194.981C1090.32 -196.235 1089.33 -197.253 1088.12 -197.254C1086.9 -197.255 1085.91 -196.238 1085.91 -194.983C1085.91 -193.729 1086.89 -192.711 1088.11 -192.71C1089.33 -192.709 1090.32 -193.726 1090.32 -194.981ZM1090.09 -225.339C1090.09 -226.455 1089.21 -227.36 1088.13 -227.361C1087.05 -227.361 1086.17 -226.457 1086.17 -225.342C1086.16 -224.226 1087.04 -223.321 1088.13 -223.32C1089.21 -223.32 1090.09 -224.224 1090.09 -225.339ZM1089.71 -255.698C1089.71 -256.582 1089.01 -257.297 1088.15 -257.297C1087.3 -257.298 1086.6 -256.584 1086.6 -255.7C1086.6 -254.816 1087.29 -254.101 1088.15 -254.1C1089.01 -254.1 1089.71 -254.814 1089.71 -255.698ZM1089.16 -286.057C1089.16 -286.612 1088.72 -287.065 1088.17 -287.065C1087.63 -287.065 1087.19 -286.613 1087.19 -286.058C1087.19 -285.503 1087.63 -285.045 1088.17 -285.045C1088.72 -285.044 1089.16 -285.496 1089.16 -286.057ZM1088.52 -316.416C1088.52 -316.601 1088.38 -316.75 1088.19 -316.75C1088.01 -316.75 1087.86 -316.601 1087.86 -316.416C1087.86 -316.231 1088.01 -316.077 1088.19 -316.077C1088.38 -316.076 1088.52 -316.225 1088.52 -316.416ZM1117.58 -43.1912C1117.58 -43.2374 1117.55 -43.2735 1117.5 -43.2735C1117.45 -43.2736 1117.42 -43.2375 1117.42 -43.1913C1117.42 -43.145 1117.45 -43.1089 1117.5 -43.1089C1117.55 -43.1089 1117.58 -43.1449 1117.58 -43.1912ZM1117.77 -73.5495C1117.77 -73.6883 1117.66 -73.8013 1117.52 -73.8014C1117.38 -73.8015 1117.27 -73.6887 1117.27 -73.5499C1117.27 -73.4111 1117.38 -73.2978 1117.52 -73.2977C1117.66 -73.2976 1117.77 -73.4107 1117.77 -73.5495ZM1118.12 -103.908C1118.12 -104.232 1117.86 -104.499 1117.55 -104.499C1117.23 -104.499 1116.97 -104.238 1116.97 -103.909C1116.97 -103.58 1117.23 -103.317 1117.54 -103.317C1117.86 -103.317 1118.12 -103.579 1118.12 -103.908ZM1118.38 -134.266C1118.38 -134.734 1118.02 -135.109 1117.57 -135.109C1117.11 -135.11 1116.75 -134.735 1116.75 -134.267C1116.75 -133.799 1117.11 -133.424 1117.56 -133.424C1118.02 -133.423 1118.38 -133.798 1118.38 -134.266ZM1118.48 -164.624C1118.48 -165.138 1118.08 -165.55 1117.58 -165.55C1117.09 -165.551 1116.69 -165.134 1116.68 -164.625C1116.68 -164.117 1117.09 -163.7 1117.58 -163.7C1118.08 -163.699 1118.48 -164.115 1118.48 -164.624ZM1118.42 -194.983C1118.42 -195.445 1118.06 -195.826 1117.6 -195.826C1117.15 -195.827 1116.79 -195.452 1116.79 -194.984C1116.79 -194.516 1117.15 -194.141 1117.6 -194.141C1118.06 -194.14 1118.42 -194.515 1118.42 -194.983ZM1118.19 -225.341C1118.19 -225.665 1117.94 -225.933 1117.62 -225.933C1117.31 -225.933 1117.05 -225.671 1117.05 -225.342C1117.05 -225.013 1117.31 -224.751 1117.62 -224.751C1117.94 -224.751 1118.19 -225.012 1118.19 -225.341ZM1117.89 -255.7C1117.89 -255.839 1117.78 -255.952 1117.64 -255.952C1117.5 -255.952 1117.39 -255.839 1117.39 -255.7C1117.39 -255.562 1117.5 -255.449 1117.64 -255.449C1117.78 -255.448 1117.89 -255.561 1117.89 -255.7ZM1117.74 -286.059C1117.74 -286.105 1117.7 -286.141 1117.66 -286.141C1117.61 -286.141 1117.58 -286.105 1117.58 -286.059C1117.58 -286.013 1117.61 -285.976 1117.66 -285.976C1117.7 -285.976 1117.74 -286.012 1117.74 -286.059Z" fill="#262F56"/>
</g>
</svg>
