<svg width="1401" height="876" viewBox="0 0 1401 876" fill="none" xmlns="http://www.w3.org/2000/svg">
<path fill-rule="evenodd" clip-rule="evenodd" d="M-7.11207e-06 701H1401C1400.73 313.802 1087.21 -2.89124e-06 700.5 0C313.791 0 0.269688 313.802 -7.11207e-06 701Z" fill="#F3F3F3"/>
<path fill-rule="evenodd" clip-rule="evenodd" d="M1355 701C1355 339.253 1061.75 46 700 46C338.253 46 45 339.253 45 701H1355Z" fill="#262F56" fill-opacity="0.2"/>
<path d="M1155.39 612.593H1152.11L1141.89 612.4L1113.54 578.085L1104.67 578.857L1078.05 562.085L1063.78 562.663L1027.33 528.541L1033.5 513.89L1014.99 492.299L997.052 489.6L995.702 483.431L986.831 480.732L971.595 450.08L960.988 421.356L957.71 403.813L938.424 394.367L934.76 390.318L924.346 378.751L889.246 417.5L864.946 429.838L839.682 464.538L854.339 491.72L901.974 528.348L906.024 537.409L918.56 544.349L929.553 567.097L949.417 577.7L974.681 605.267L936.496 585.411L938.231 591.58L943.824 604.689L931.096 594.664L918.367 591.58L937.653 627.823L906.024 597.749L891.174 574.037L881.339 566.326L880.953 574.423L834.668 523.722L819.818 520.059L803.232 507.335L787.418 480.153L770.061 461.839L760.225 462.611L738.047 446.224L749.233 467.623L728.404 453.357L732.069 465.695L701.983 449.502L703.719 436.778L698.897 425.404L695.619 426.754L700.44 411.138L695.04 416.536L693.883 405.355L686.362 402.656L692.34 400.728L691.762 378.751L666.498 361.209L664.376 375.474L656.662 385.306L659.362 362.944L664.762 353.883L659.169 349.642L653.383 356.389L638.534 334.991L649.912 302.411L645.283 304.724L645.862 287.567L639.691 293.157L630.048 312.05L600.927 350.606L577.784 366.799L562.741 399.186L560.62 403.813L536.899 442.754L502.185 470.707L486.563 491.913L511.442 513.504L551.17 495.383C560.813 502.709 570.455 510.034 580.098 517.36L679.612 590.231L728.983 616.449L757.14 615.87L854.339 690.862L886.739 715.923L895.803 712.26L902.939 718.622L923.381 725.947L942.281 736.743L976.417 707.633L988.374 681.608L1018.07 725.176L1026.94 721.128L1035.82 732.695L1056.07 716.501L1066.29 698.573L1073.42 699.344L1079.98 691.633L1089.24 694.91L1107.75 722.67L1127.62 735.008L1137.26 748.503L1144.39 734.044L1150.37 739.635L1161.37 740.406L1167.73 748.695L1171.59 749.274L1172.17 744.261L1177.76 752.744L1181.81 751.201L1290 710.718L1155.39 612.593ZM941.317 499.239L946.717 484.395L952.31 476.683L959.638 478.226L941.317 499.239ZM654.541 434.272L647.019 420.392L639.305 412.295L635.834 418.078L637.376 433.115L623.491 421.163L614.234 441.405L613.462 433.501L620.984 416.922L621.176 407.09L609.412 390.125L611.341 375.089L622.719 353.112L638.726 369.113L639.305 378.559L647.405 388.39L649.333 405.355L657.626 419.428L654.541 434.272ZM727.826 515.432L707.576 504.829L697.74 498.082L690.026 499.624L677.298 488.443L668.812 485.166L668.04 479.961L664.183 474.756L675.369 453.164L675.176 435.043L685.783 424.055L680.19 438.32L684.24 445.068L692.533 465.502L697.933 467.623L715.869 487.479L717.026 494.612L731.876 510.034L751.74 530.083L727.826 515.432ZM1015.18 519.866L1023.09 511.577L1015.18 528.734V519.866ZM1019.81 628.786L1014.02 625.509L1007.27 613.557L996.667 611.629L1000.33 622.425L993.195 619.533L983.552 624.545L991.074 615.292L989.531 607.195L1009.59 599.484L1039.67 646.329L1019.81 628.786ZM1085.57 675.825L1071.88 667.15L1084.99 671.969L1066.48 653.077L1091.94 667.921L1109.1 688.934L1085.57 675.825Z" fill="#373D52"/>
<path d="M1177.57 753.322L1087.69 786.866L1031.19 796.119L947.103 815.783L842.961 847.398L741.518 825.229L706.419 841.808L684.047 819.831L545.384 875.159L366.993 788.408L279.436 811.349L245.301 795.541L215.794 804.601L189.373 789.372L149.837 800.746L123.609 786.866L94.2947 793.227C94.2947 793.227 47.238 788.601 48.0094 787.829C58.2307 783.396 68.4521 779.154 78.8663 775.106L87.7377 756.021L143.28 719.393L175.101 669.077L226.401 608.545L251.858 608.93L267.672 599.098L329.772 529.891H344.429L409.035 465.888L413.278 571.531L434.878 652.884L479.235 689.126L469.785 620.304L448.185 600.833L420.028 553.217L462.456 589.459L433.142 526.999L457.249 549.554L446.064 521.987L429.671 497.118L441.049 504.636L448.185 500.588L453.199 502.709L461.106 498.082L478.27 488.057L485.406 522.565L495.242 531.818L511.056 513.89L550.784 495.769C550.398 496.732 550.206 535.867 550.206 535.867L599.77 596.399L606.134 632.449V632.835L596.684 665.607L639.883 696.066L638.341 662.137L627.348 652.113L609.027 617.798L635.641 641.317L609.798 573.651L607.098 554.181L658.205 605.653L682.697 631.1L729.947 665.222L716.061 628.979L740.554 627.244L753.668 630.714L813.068 682.572L797.447 655.39L853.375 691.247L885.774 716.308L894.839 712.645L901.974 719.007L922.417 726.333L941.317 737.128L975.452 708.019L987.409 681.994L1017.11 725.562L1025.98 721.513L1034.85 733.08L1055.1 716.887L1065.32 698.958L1072.46 699.729L1079.02 692.018L1088.27 695.295L1106.79 723.056L1126.65 735.393L1136.29 748.888L1143.43 734.43L1149.41 740.02L1160.4 740.791L1166.77 749.081L1170.62 749.659L1171.2 744.647L1177.57 753.322Z" fill="#292F44"/>
<path d="M943.824 604.303L938.231 591.194L936.496 585.025L974.681 604.882L949.417 577.507L929.553 566.904L918.56 544.156L906.024 537.216L901.974 528.156L854.339 491.527L839.682 464.346L820.396 428.681L806.511 412.681L791.854 382.029L757.14 356.775L737.854 330.942L721.076 304.339L679.997 276.193L679.226 287.76L693.69 296.435L695.04 313.785L696.776 320.918L701.79 328.629L694.076 328.05L692.147 321.11L669.198 296.242L659.748 293.543L655.698 292.386L646.248 287.76L645.669 304.917L650.298 302.604L638.919 335.183L653.769 356.582L659.555 349.835L665.148 354.076L659.748 363.136L657.048 385.499L664.762 375.667L666.883 361.401L692.147 378.944L692.726 400.921L686.747 402.849L694.269 405.548L695.426 416.729L700.826 411.331L696.005 426.946L699.283 425.597L704.104 436.971L702.369 449.694L732.454 465.888L728.79 453.55L749.618 467.816L738.433 446.417L760.611 462.803L770.447 462.032L787.804 480.346L803.618 507.528L820.204 520.252L835.054 523.914L880.953 574.23L881.339 566.133L891.174 573.844L906.024 597.556L937.653 627.63L918.367 591.387L931.096 594.472L943.824 604.303ZM765.625 447.574L725.126 408.825L716.447 388.39L699.476 372.775L689.447 352.919L706.419 365.064L700.633 350.22L721.654 366.028L738.24 387.812L765.818 411.524L765.625 447.574Z" fill="white"/>
<path d="M1152.11 612.4H1141.89L1113.54 578.085L1104.67 578.664L1078.05 561.892L1063.78 562.663L1027.33 528.541L1033.31 513.89L1014.8 492.299L996.86 489.6L995.51 483.238L986.638 480.539L971.403 449.887L960.796 421.163L957.517 403.62L938.231 393.981L934.567 389.933L948.067 380.872L994.16 417.886L1035.43 487.479L1049.7 488.636L1079.59 534.903L1101.58 552.831L1115.66 565.748L1152.11 612.4Z" fill="white"/>
<path d="M701.597 328.629L693.883 328.05L691.955 320.918L669.005 296.049L659.555 293.543L679.998 276L679.226 287.567L693.69 296.435L695.04 313.785L696.583 320.918L701.597 328.629Z" fill="#373D52"/>
<path d="M657.626 419.428L654.541 434.272L647.019 420.392L639.112 412.295L635.641 418.078L637.184 433.115L623.491 421.163L614.234 441.212L613.462 433.501L620.984 416.922V407.09L609.219 390.125L611.148 375.089L622.719 353.112L638.534 369.112L639.305 378.751L647.405 388.39L649.333 405.355L657.626 419.428Z" fill="#EDF0F7"/>
<path d="M751.933 530.276L727.826 515.432L707.769 504.829L697.933 498.082L690.219 499.624L677.49 488.636L669.005 485.359L668.233 480.153L664.376 474.948L675.369 453.164V435.043L685.976 424.055L680.383 438.32L684.433 445.068L692.533 465.502L698.126 467.816L716.062 487.672L717.219 494.805L732.069 510.227L751.933 530.276Z" fill="#EDF0F7"/>
<path d="M765.625 411.524V447.574L725.126 408.825L716.254 388.583L699.476 372.775L689.255 352.919L706.226 365.064L700.44 350.027L721.461 365.835L737.854 387.619L765.625 411.524Z" fill="#373D52"/>
<path d="M853.953 691.054L756.754 616.063L728.597 616.641L679.419 590.423L579.905 517.553C570.263 510.227 560.62 502.901 550.977 495.576C550.591 496.54 550.398 535.674 550.398 535.674L599.962 596.207L606.327 632.256V632.642L596.877 665.415L640.076 695.874L638.534 661.945L627.541 651.92L609.219 617.605L635.834 641.124L609.991 573.459L607.291 553.988L658.398 605.46L682.89 630.907L730.14 665.029L716.254 628.786L740.747 627.051L753.861 630.521L813.261 682.379L797.64 655.197L853.953 691.054Z" fill="white"/>
<path d="M1039.67 646.522L1019.81 628.786L1014.02 625.509L1007.27 613.557L996.666 611.629L1000.33 622.425L993.195 619.533L983.745 624.545L991.074 615.292L989.724 607.195L1009.59 599.484L1039.67 646.522Z" fill="white"/>
<path d="M1109.1 688.741L1085.57 675.825L1071.88 667.15L1084.99 671.776L1066.67 652.884L1092.13 667.728L1109.1 688.741Z" fill="white"/>
<path d="M1023.28 511.577L1015.18 528.734V519.866L1023.28 511.577Z" fill="white"/>
<path d="M959.638 478.033L941.317 499.239L946.524 484.395L952.117 476.683L959.638 478.033Z" fill="white"/>
<path d="M470.17 620.69L448.571 601.219L420.414 553.602L462.842 589.845L433.528 527.384L457.635 549.94L446.256 522.179L430.056 497.311L441.242 504.829L448.378 500.781L453.392 502.709L461.299 498.082L409.421 466.081L413.664 571.724L435.264 653.077L479.62 689.319L470.17 620.69Z" fill="white"/>
<path d="M562.934 399.379L560.813 404.198L537.091 443.14L502.185 471.093L486.563 492.106L511.442 513.697L495.627 531.818L485.599 522.565L478.463 488.057L503.534 451.622L562.934 399.379Z" fill="white"/>
<g clip-path="url(#clip0_844_507)">
<path d="M833.916 185.244C835.955 183.331 838.215 181.626 841.009 181.069C841.858 180.9 842.732 180.84 843.591 180.937C843.981 180.982 844.369 181.054 844.746 181.161C845.387 181.343 846.003 181.681 846.639 181.278C847.826 180.522 848.541 178.84 850.153 178.86C851.169 178.873 851.422 179.83 852.152 179.999C853.096 180.216 855.349 179.081 856.307 178.805C857.805 178.375 859.397 177.942 860.897 178.363C862.397 178.783 863.673 180.412 863.124 181.875C864.242 181.98 865.325 182.306 866.398 182.627C870.637 183.898 874.879 185.169 879.118 186.44C880.256 186.781 891.439 191.336 891.439 191.336C891.439 191.336 885.444 191.353 884.716 191.336C862.643 190.786 840.566 190.234 818.493 189.684C823.634 188.206 828.775 186.726 833.916 185.249L833.916 185.244Z" fill="white"/>
<path d="M559 197.356C565.656 195.816 572.312 194.277 578.968 192.737C581.101 192.244 583.463 191.779 585.38 192.834C586.021 193.187 586.57 193.694 587.203 194.063C589.841 195.598 593.233 194.413 595.766 192.709C597.398 191.612 599.348 190.239 601.141 191.047C601.757 191.326 602.236 191.829 602.723 192.296C604.114 193.63 610.119 196.088 609.456 198.065C608.887 199.762 597.184 198.508 595.396 198.456C583.264 198.088 571.132 197.722 558.998 197.354L559 197.356Z" fill="white"/>
<path d="M811.829 455.747C811.916 455.747 812.003 455.71 812.063 455.638C812.167 455.509 812.147 455.32 812.021 455.215L780.216 429.275C780.087 429.171 779.898 429.191 779.794 429.318C779.69 429.447 779.71 429.636 779.836 429.741L811.641 455.68C811.695 455.725 811.762 455.747 811.829 455.747Z" fill="#D9CAC8"/>
<path d="M790.27 469.534L793.652 476.876L796.397 480.1L800.023 475.819L798.907 465.109L792.252 466.281L790.27 469.534Z" fill="#FF9F8F"/>
<path d="M792.659 480.63C795.984 480.461 799.305 480.282 802.625 480.095C801.617 478.097 800.023 475.821 800.023 475.821C800.023 475.821 797.489 477.269 796.31 477.368C795.128 477.468 794.05 476.893 793.652 476.876C793.257 476.858 793.513 478.64 792.957 480.028C792.9 480.17 792.798 480.376 792.659 480.632L792.659 480.63Z" fill="white"/>
<path d="M795.56 425.922L799.071 433.201L801.87 436.378L805.422 432.034L804.118 421.345L797.484 422.633L795.56 425.922Z" fill="#FF9F8F"/>
<path d="M805.422 432.034C805.422 432.034 802.914 433.527 801.736 433.646C800.557 433.766 799.466 433.211 799.071 433.201C798.677 433.191 798.965 434.967 798.433 436.366C797.902 437.764 793.255 445.142 792.358 447.287C791.462 449.431 791.983 450.424 792.758 451.389C793.536 452.354 794.539 452.685 794.539 452.685C794.539 452.685 808.166 440.234 808.864 438.983C809.562 437.731 805.422 432.034 805.422 432.034Z" fill="white"/>
<path d="M793.98 451.757C794.055 451.757 794.132 451.73 794.189 451.673L808.228 437.915C808.348 437.798 808.348 437.609 808.233 437.49C808.117 437.371 807.928 437.371 807.809 437.485L793.769 451.242C793.65 451.359 793.65 451.548 793.764 451.668C793.824 451.727 793.901 451.757 793.978 451.757L793.98 451.757Z" fill="#E3D2CF"/>
<path d="M800.182 438.923C800.291 438.923 800.395 438.863 800.45 438.759C800.524 438.612 800.467 438.43 800.318 438.356L798.513 437.433C798.366 437.356 798.185 437.415 798.11 437.565C798.036 437.711 798.093 437.893 798.242 437.968L800.047 438.891C800.092 438.913 800.137 438.923 800.184 438.923L800.182 438.923Z" fill="#E3D2CF"/>
<path d="M799.28 440.697C799.394 440.697 799.504 440.632 799.553 440.52C799.623 440.368 799.556 440.192 799.404 440.122L797.616 439.304C797.465 439.234 797.288 439.301 797.219 439.453C797.149 439.605 797.216 439.781 797.368 439.851L799.156 440.669C799.196 440.687 799.238 440.697 799.28 440.697Z" fill="#E3D2CF"/>
<path d="M822.524 386.499C822.524 386.499 808.963 366.821 800.415 362.164C791.867 357.507 784.111 366.371 783.716 374.331C783.318 382.292 795.103 428.056 795.103 428.056L809.823 426.905L808.66 408.879L822.524 386.496L822.524 386.499Z" fill="#DC9B7D"/>
<path d="M824.389 384.847C824.389 384.847 776.613 403.888 773.061 413.24C767.722 427.3 790.799 471.268 790.799 471.268C790.799 471.268 803.087 468.064 804.287 467.263C805.484 466.462 803.485 461.255 802.486 457.651C801.485 454.046 799.595 442.286 797.415 436.278C795.234 430.271 794.581 426.427 795.182 425.225C795.783 424.024 812.262 424.305 830.93 415.292C849.599 406.279 848.799 401.415 848.799 401.415C848.799 401.415 846.308 388.768 844.056 388.412C841.803 388.056 824.391 384.85 824.391 384.85L824.389 384.847Z" fill="#DC9B7D"/>
<path d="M652.783 291.092L645.166 289.878L640.676 286.226L643.885 282.616L651.966 281.516L654.244 288.875L652.783 291.092Z" fill="#FF9F8F"/>
<path d="M714.288 286.659C713.732 294.488 708.74 299.528 704.811 299.349C700.882 299.172 651.239 290.883 651.239 290.883C651.239 290.883 649.528 278.825 649.972 277.663C650.419 276.501 656.382 276.678 659.313 277.277C662.243 277.877 666.06 275.524 670.951 276.108C675.841 276.693 675.679 276.17 678.188 276.267C680.696 276.364 688.032 276.262 688.032 276.262C688.032 276.262 667.891 247.449 659.894 233.234C651.542 218.39 671.869 212.33 671.869 212.33C671.869 212.33 690.975 216.873 691.701 216.393C692.423 215.915 699.77 219.273 699.77 219.273C699.77 219.273 714.847 278.83 714.291 286.659L714.288 286.659Z" fill="#415A80"/>
<path d="M644.898 282.489C644.898 282.489 643.584 285.38 643.517 285.703C643.45 286.027 646.689 289 646.667 289.823C646.644 290.646 645.984 291.888 645.946 292.067C645.909 292.246 646.575 297.761 646.575 297.761C646.575 297.761 649.433 299.655 650.273 300.836C651.112 302.018 650.486 304.354 650.335 304.548C650.183 304.742 647.615 305.262 645.36 304.799C643.714 304.461 640.957 304.088 639.343 301.212C637.564 298.045 634.969 291.694 634.336 289.204C633.365 285.38 633.576 283.248 633.735 282.837C633.894 282.427 637.092 281.738 640.202 281.852C641.993 281.917 644.898 282.492 644.898 282.492L644.898 282.489Z" fill="#36303A"/>
<path d="M768.074 245.191C768.074 245.191 773.032 247.74 773.543 248.591C774.055 249.442 773.801 254.736 773.801 254.736L768.891 249.183L768.074 245.191Z" fill="#FF9F8F"/>
<path d="M751.646 209.3C751.646 209.3 757.035 219.107 759.181 224.266C761.324 229.423 771 252.263 771 252.263L764.334 255.102C764.334 255.102 748.149 230.523 744.64 224.819C741.707 220.052 737.415 212.046 737.415 212.046L751.648 209.3L751.646 209.3Z" fill="#FF9F8F"/>
<path d="M800.415 291.545C800.415 291.545 794.589 281.989 791.184 277.566C787.779 273.143 772.783 253.393 772.783 253.393L767.014 257.781C767.014 257.781 780.283 284.054 783.487 289.937C786.164 294.853 790.97 302.558 790.97 302.558L800.415 291.545Z" fill="#FF9F8F"/>
<path d="M839.963 319.148C839.963 319.148 806.145 291.898 803.495 290.878C800.845 289.858 793.488 277.096 792.147 277.976C790.806 278.857 782.909 284.445 782.355 285.519C781.801 286.594 784.361 289.681 785.752 292.612C787.145 295.54 790.858 301.896 793.719 303.943C796.58 305.991 797.735 306.682 802.98 312.805C808.226 318.925 833.796 328.895 833.796 328.895L839.96 319.151L839.963 319.148Z" fill="#6F5E68"/>
<path d="M762.834 266.058C762.834 266.058 763.048 266.525 763.428 267.344C763.783 268.115 764.282 269.195 764.888 270.498C768.502 278.335 775.858 294.214 778.076 298.682C780.562 303.695 785.072 311.581 785.072 311.581L794.931 300.936C794.931 300.936 789.473 291.164 786.239 286.611C784.036 283.512 776.732 273.103 772.299 266.782L770.513 264.229C769.438 262.697 768.775 261.751 768.775 261.751L762.837 266.055L762.834 266.058Z" fill="#FF9F8F"/>
<path d="M732.999 168.476C732.999 168.476 738.138 172.093 739.909 179.738C741.679 187.383 750.916 205.544 750.863 206.772C750.811 208.001 753.538 207.591 753.675 209.641C753.811 211.688 744.818 216.878 740.932 217.014C737.045 217.151 735.138 212.099 727.868 205.136C721.635 199.162 709.413 189.843 709.937 187.93C710.459 186.02 732.999 168.476 732.999 168.476Z" fill="white"/>
<path d="M741.001 215.813C741.106 215.813 741.21 215.758 741.265 215.659C741.284 215.624 743.232 212.173 746.368 210.835C749.587 209.462 750.943 209.044 750.955 209.041C751.114 208.994 751.204 208.825 751.157 208.666C751.109 208.506 750.94 208.417 750.782 208.464C750.727 208.482 749.381 208.895 746.132 210.28C742.804 211.701 740.823 215.213 740.741 215.363C740.661 215.507 740.713 215.691 740.857 215.771C740.904 215.795 740.954 215.808 741.004 215.808L741.001 215.813Z" fill="#E3D2CF"/>
<path d="M713.382 142.835C714.35 139.061 714.328 135.989 715.299 132.218C716.114 129.061 716.64 125.511 718.297 122.657C719.573 120.458 721.707 119.144 724.056 118.378C724.389 117.189 725.032 116.199 726.252 116.037C727.809 115.826 729.336 116.572 730.243 117.801C730.995 117.259 731.869 116.896 732.821 116.838C734.519 116.741 735.93 117.726 737.04 118.918C737.773 119.704 738.495 120.732 739.658 120.839C740.44 120.911 740.969 120.804 741.607 121.349C742.213 121.866 742.809 122.563 743.239 123.339C743.569 123.04 743.939 122.804 744.364 122.66C746.271 122.003 747.262 124.075 747.759 125.548C749.038 129.322 748.181 133.641 745.583 136.646C745.561 136.676 745.536 136.693 745.511 136.703C745.213 137.086 744.471 137.817 744.471 137.817C744.471 137.817 743.487 138.31 742.119 138.902C740.244 139.706 737.649 140.698 735.875 140.843C733.322 141.051 730.754 141.158 728.189 141.248C727.769 141.263 727.349 141.278 726.935 141.29C725.583 141.338 724.235 141.387 722.889 141.445C722.631 141.455 722.37 141.467 722.112 141.477C721.804 141.492 721.496 141.507 721.19 141.519C720.624 141.542 720.058 141.569 719.494 141.609C718.615 141.663 717.738 141.738 716.866 141.853C716.519 141.9 715.88 142.104 715.249 142.32C714.291 142.646 713.337 142.992 713.377 142.845C713.377 142.845 713.377 142.843 713.379 142.835L713.382 142.835Z" fill="#6E3934"/>
<path d="M715.051 144.713C715.093 143.915 715.158 143.119 715.247 142.32C715.297 141.865 715.359 141.407 715.426 140.954C715.515 140.325 715.622 139.698 715.749 139.071C716.255 136.506 717.015 133.991 718.029 131.583C718.87 129.583 719.856 127.473 721.212 125.764C722.489 124.17 724.436 123.441 726.329 122.829C730.362 121.533 734.385 123.142 737.609 125.608C739.444 127.016 741.277 128.633 742.176 130.819C743.043 132.929 743.281 135.554 743.281 135.554C743.281 135.554 742.976 136.434 742.576 137.579C742.432 137.994 742.278 138.444 742.116 138.897C741.657 140.218 741.18 141.584 740.929 142.29C740.743 142.825 740.542 143.36 740.338 143.888C739.832 145.181 739.31 146.233 738.684 147.472C737.599 149.639 735.257 153.463 734.008 155.162L734.005 155.162L734.005 155.169C732.532 157.17 732.19 156.983 729.997 158.155C728.415 158.998 726.977 159.152 725.241 158.973C724.419 158.884 723.738 158.665 723.142 158.356C721.488 157.5 720.49 155.953 718.898 154.6C718.674 154.408 718.438 154.222 718.188 154.042C718.148 154.013 718.13 153.978 718.115 153.938C715.312 151.93 714.867 148.007 715.046 144.706L715.051 144.713Z" fill="#FF9F8F"/>
<path d="M724.883 155.756L718.56 165.247L708.472 165.541L704.675 156.679L716.057 138.584C716.057 138.584 727.121 148.253 726.887 148.54C726.656 148.826 724.883 155.756 724.883 155.756Z" fill="#FF9F8F"/>
<path d="M727.101 140.355C727.101 140.355 727.111 140.335 727.116 140.325C727.382 139.758 727.819 139.27 728.296 139.327C729.177 139.432 728.775 140.435 728.479 140.877C728.226 141.255 727.665 141.915 727.198 141.646C726.741 141.385 726.93 140.736 727.101 140.355Z" fill="#36303A"/>
<path d="M736.384 144.855C736.384 144.855 736.394 144.835 736.399 144.825C736.665 144.258 737.102 143.771 737.579 143.828C738.461 143.932 738.058 144.935 737.763 145.378C737.509 145.756 736.948 146.415 736.481 146.146C736.024 145.885 736.213 145.236 736.384 144.855Z" fill="#36303A"/>
<path d="M726.411 135.708C726.731 135.243 727.749 135.444 728.147 135.583C728.877 135.84 729.786 136.342 730.419 136.775C730.851 137.069 731.971 137.718 731.864 138.362C731.75 139.059 730.618 138.8 730.238 138.631C729.453 138.285 728.743 137.79 728.042 137.3C727.593 136.987 727.064 136.807 726.644 136.447C726.49 136.315 726.276 136.116 726.331 135.889C726.348 135.82 726.376 135.76 726.411 135.708Z" fill="#6E3934"/>
<path d="M738.227 142.659C738.878 143.159 739.613 143.532 740.343 143.892C740.549 143.365 740.746 142.833 740.934 142.293C740.537 142.029 740.122 141.79 739.762 141.604C739.295 141.367 738.187 140.696 737.678 141.101C737.125 141.539 737.894 142.41 738.227 142.659Z" fill="#6E3934"/>
<path d="M713.382 142.835C713.464 142.601 714.788 138.87 715.423 137.071C716.052 135.292 716.491 133.459 717.087 131.67C717.683 129.874 718.525 128.2 719.429 126.546C720.194 125.147 720.934 123.67 722.248 122.694C724.948 120.697 728.601 121.053 731.733 121.441C733.285 121.632 734.626 122.08 735.895 123.008C737.279 124.013 738.56 125.187 739.779 126.384C741.138 127.72 742.737 129.178 743.425 130.999C743.996 132.506 744.774 133.203 744.183 134.69C744.384 134.745 743.738 135.733 743.934 135.79C744.185 135.862 743.482 137.837 743.232 137.765C743.015 137.703 742.802 137.643 742.583 137.586C741.2 137.215 739.789 136.907 738.448 136.407C736.971 135.857 735.615 135.001 734.249 134.228C731.887 132.882 727.784 129.048 727.784 129.048C727.784 129.048 726.629 130.802 726.296 131.292C725.854 131.949 725.559 132.74 725.213 133.451C724.752 134.412 724.327 135.424 723.833 136.38C723.743 136.551 723.649 136.725 723.552 136.892C723.269 137.387 722.914 137.79 722.33 137.579C722.263 137.556 722.198 137.474 722.193 137.399C722.196 137.397 722.196 137.392 722.196 137.385C722.193 137.382 722.193 137.375 722.196 137.37C722.198 137.347 722.203 137.33 722.211 137.307C722.226 137.24 722.233 137.203 722.233 137.203C722.417 136.327 722.521 135.404 722.333 134.524C722.082 133.335 720.626 132.961 719.621 133.384C718.255 133.966 717.773 135.588 717.472 136.89C717.308 137.603 717.075 139.049 717.013 139.417C717.003 139.474 716.998 139.507 716.998 139.507L715.428 140.954L713.377 142.843C713.377 142.843 713.377 142.84 713.379 142.833L713.382 142.835Z" fill="#6E3934"/>
<path d="M723.443 152.301C723.443 152.301 723.445 152.299 723.445 152.294C723.477 152.197 723.512 152.147 723.542 152.174L723.545 152.174C723.545 152.174 723.554 152.192 723.559 152.197C724.349 153.09 725.007 153.323 725.536 153.249C726.269 153.152 726.733 152.47 726.912 152.154C726.969 152.057 726.999 151.995 726.999 151.995L728.477 152.714C728.477 152.714 728.405 152.828 728.301 153.013C728.097 153.383 727.774 154.03 727.697 154.557C727.6 155.269 728.432 155.948 729.453 156.224C729.535 156.247 729.614 156.264 729.696 156.281C729.743 156.289 729.719 156.324 729.647 156.376C729.316 156.612 727.948 157.192 727.789 157.048C727.546 156.819 727.359 156.553 727.223 156.264C727.2 156.264 727.175 156.264 727.151 156.257C726.383 155.998 725.673 155.647 725.025 155.202C724.396 154.779 723.828 154.264 723.319 153.672C723.219 153.552 723.321 152.649 723.44 152.304L723.443 152.301Z" fill="#6E3934"/>
<path d="M720.728 142.733C720.728 142.733 720.736 142.723 720.738 142.716C720.885 142.417 721.039 141.997 721.19 141.519C721.65 140.044 722.064 138.024 722.191 137.397C722.193 137.395 722.193 137.39 722.193 137.382C722.201 137.352 722.203 137.327 722.208 137.307C722.223 137.24 722.231 137.203 722.231 137.203C722.231 137.203 723.612 135.909 723.733 135.218C723.78 134.962 724.188 134.999 724.143 135.258C724.071 135.648 723.964 136.019 723.83 136.377C723.557 137.138 723.184 137.852 722.876 138.621C722.511 139.534 722.288 140.504 722.112 141.477C722.015 141.994 721.933 142.514 721.846 143.032C721.816 143.211 721.779 143.405 721.734 143.609C721.493 144.788 721.143 146.281 721.823 147.154C722.357 147.841 722.78 148.358 722.78 149.241C722.78 149.306 722.777 149.368 722.772 149.433C722.755 149.676 722.668 149.913 722.658 150.154C722.623 150.866 722.901 151.224 723.264 151.766C723.353 151.903 723.448 152.04 723.545 152.172C723.547 152.179 723.554 152.189 723.559 152.197C723.785 152.515 724.021 152.826 724.265 153.122C724.58 153.503 724.92 153.873 725.283 154.209C725.944 154.831 726.686 155.356 727.523 155.707C728.097 155.948 728.77 156.135 729.453 156.219C729.542 156.229 729.629 156.237 729.714 156.244C730.394 156.301 731.072 156.247 731.663 156.04C731.849 155.975 732.143 155.868 732.455 155.749C733.141 155.493 733.933 155.192 734.005 155.167C733.948 155.266 733.21 156.47 731.328 158.127C729.848 159.436 728.971 160.013 726.982 159.821C725.998 159.724 723.942 159.302 723.127 158.777C723.065 158.737 723.006 158.697 722.943 158.657C721.863 157.946 721.205 157.361 720.194 156.48C719.72 156.07 719.216 155.276 718.9 154.597C718.806 154.396 718.729 154.209 718.674 154.04C718.366 153.085 718.111 152.346 718.123 151.343C718.158 148.358 719.424 145.271 720.726 142.726L720.728 142.733Z" fill="#6E3934"/>
<path d="M731.055 152.697C731.055 152.697 729.53 151.873 728.147 150.968C727.158 150.321 725.931 149.303 725.931 149.303C725.931 149.303 725.35 151.099 727.374 152.522C729.398 153.945 731.055 152.694 731.055 152.694L731.055 152.697Z" fill="white"/>
<path d="M720.828 150.851C720.877 150.97 720.892 150.448 720.952 150.557C721.62 150.134 722.196 149.674 722.78 149.246C723.562 148.669 724.362 148.151 725.422 147.848C725.678 147.776 725.941 147.744 726.204 147.741C727.498 147.726 728.869 148.438 729.964 148.965C731.402 149.654 732.488 151.468 732.89 152.97C733.158 153.98 732.88 154.878 732.455 155.754C732.366 155.933 732.272 156.11 732.18 156.289C732.229 156.368 732.237 156.475 732.157 156.558C731.641 157.102 731.008 157.471 730.297 157.707C729.803 157.871 729.204 158.102 728.738 157.764C728.526 157.61 728.762 157.277 728.979 157.433C729.058 157.49 729.157 157.515 729.267 157.523C729.187 157.48 729.137 157.396 729.187 157.289C729.331 156.983 729.488 156.679 729.647 156.373C729.664 156.344 729.679 156.311 729.696 156.279C729.699 156.269 729.706 156.257 729.714 156.247C730.188 155.341 730.657 154.423 730.739 153.403C730.754 153.224 730.754 153.052 730.737 152.878C730.729 152.746 730.707 152.617 730.68 152.49C730.516 151.724 730.064 151.052 729.396 150.582C728.628 150.037 727.481 149.604 726.49 149.751C726.488 149.751 726.483 149.754 726.483 149.754C726.259 149.786 726.048 149.848 725.847 149.945C725.832 149.948 725.822 149.955 725.807 149.963C724.816 150.47 724.215 151.346 723.542 152.167C723.542 152.167 723.541 152.168 723.54 152.169C723.507 152.209 723.475 152.249 723.443 152.289C723.443 152.291 723.44 152.296 723.44 152.296C723.314 152.448 723.187 152.597 723.05 152.741C722.688 153.124 722.541 153.229 722.099 152.938C721.62 152.622 721.18 152.204 720.847 151.726C720.815 151.741 720.785 151.761 720.758 151.781C720.522 151.896 720.348 151.527 720.582 151.408C720.599 151.4 720.616 151.391 720.631 151.378C720.567 151.264 720.505 151.142 720.455 151.015C720.356 150.774 720.723 150.599 720.825 150.843L720.828 150.851Z" fill="#6E3934"/>
<path d="M732.604 149.963C732.907 149.963 733.004 149.873 733.051 149.828C733.297 149.597 733.784 147.614 734.494 143.93C734.527 143.766 734.42 143.609 734.256 143.577C734.092 143.544 733.936 143.651 733.903 143.815C733.436 146.233 732.85 148.893 732.639 149.368C732.346 149.398 731.365 149.107 730.573 148.798C730.419 148.739 730.245 148.816 730.185 148.97C730.126 149.124 730.203 149.298 730.357 149.358C731.584 149.836 732.242 149.963 732.602 149.963L732.604 149.963Z" fill="#F57E6C"/>
<path d="M734.554 208.596C734.554 208.596 742.414 216.557 745.884 220.93C749.353 225.306 764.888 244.628 764.888 244.628L759.25 249.183C759.25 249.183 736.978 229.968 732.046 225.44C727.925 221.657 721.612 215.131 721.612 215.131L734.554 208.594L734.554 208.596Z" fill="#FF9F8F"/>
<path d="M722.817 159.913C721.97 159.431 720.147 160.284 718.51 161.376C716.874 162.468 715.163 163.63 715.163 163.63C715.163 163.63 714.966 159.739 714.08 158.441C713.253 157.232 712.456 156 711.566 154.836C711.129 154.264 710.64 153.724 710.208 153.154C709.761 152.565 709.289 151.963 708.72 151.485C707.933 150.823 706.299 149.716 705.492 150.91C704.878 151.818 703.448 152.774 703.448 152.774C703.448 152.774 697.348 151.701 692.066 154.533C680.594 160.682 675.143 170.285 669.008 181.651C662.874 193.018 660.907 194.921 658.25 197.685C655.592 200.449 654.241 200.546 651.929 204.77C650.879 206.69 652.719 209.798 654.865 210.004C657.01 210.208 667.836 216.266 674.174 217.597C680.512 218.928 691.519 223.114 698.334 223.025C699.983 223.002 705.082 222.274 705.695 217.972C706.309 213.671 712.619 209.576 716.377 204.456C720.135 199.337 736.322 183.43 736.322 173.735C736.322 168.275 723.959 163.324 723.602 162.249C723.244 161.175 723.661 160.399 722.814 159.916L722.817 159.913Z" fill="white"/>
<path d="M740.691 213.397C740.691 213.397 737.144 217.084 733.816 219.95C730.488 222.818 729.227 224.542 727.642 223.721C726.058 222.903 724.968 221.351 724.014 220.258C723.06 219.166 719.26 215.273 715.716 213.77C712.172 212.268 707.742 206.225 706.381 205.27C705.017 204.315 698.476 196.804 698.066 195.849C697.656 194.894 692.068 178.509 692.068 178.509C692.068 178.509 723.008 178.509 722.737 179.191C722.464 179.873 740.693 213.395 740.693 213.395L740.691 213.397Z" fill="white"/>
<path d="M740.46 213.273C740.547 213.273 740.631 213.236 740.691 213.163C740.795 213.037 741.709 211.912 741.709 211.141C741.709 210.285 739.993 208.519 738.97 208.32C738.024 208.136 736.874 207.633 736.591 207.106C736.201 206.382 733.191 201.521 732.053 199.779L731.703 199.245C730.523 197.448 728.743 194.732 728.199 193.219C727.58 191.498 710.898 166.914 710.188 165.869C710.094 165.732 709.907 165.697 709.771 165.79C709.634 165.884 709.599 166.071 709.691 166.207C715.689 175.044 727.158 192.102 727.635 193.423C728.204 195.003 730.007 197.754 731.201 199.573L731.551 200.108C732.744 201.934 735.721 206.755 736.064 207.389C736.528 208.253 738.096 208.76 738.858 208.907C739.69 209.069 741.113 210.666 741.113 211.138C741.113 211.556 740.574 212.365 740.231 212.775C740.125 212.902 740.144 213.091 740.271 213.198C740.328 213.246 740.395 213.268 740.462 213.268L740.46 213.273Z" fill="#E3D2CF"/>
<path d="M726.892 220.045C726.969 220.045 727.044 220.017 727.103 219.957C727.131 219.933 729.791 217.325 732.746 214.81C735.672 212.32 739.231 210.85 739.265 210.835C739.419 210.773 739.491 210.596 739.429 210.444C739.367 210.29 739.191 210.218 739.039 210.28C739.002 210.295 735.359 211.8 732.359 214.353C729.386 216.883 726.711 219.502 726.686 219.53C726.567 219.647 726.567 219.836 726.681 219.955C726.741 220.015 726.818 220.045 726.895 220.045L726.892 220.045Z" fill="#E3D2CF"/>
<path d="M709.94 208.895C710.019 208.895 710.101 208.862 710.158 208.8C710.272 208.678 710.265 208.489 710.143 208.375C709.937 208.181 689.369 188.963 685.134 184.316C680.932 179.706 679.891 176.671 679.881 176.641C679.829 176.484 679.66 176.397 679.501 176.452C679.345 176.504 679.26 176.673 679.313 176.833C679.355 176.959 680.405 180.019 684.692 184.724C688.944 189.388 709.53 208.623 709.736 208.817C709.793 208.872 709.868 208.897 709.94 208.897L709.94 208.895Z" fill="#E3D2CF"/>
<path d="M722.149 169.317C722.191 169.317 722.231 169.31 722.27 169.295C722.459 169.223 722.812 169.086 723.577 163.105C723.597 162.941 723.482 162.789 723.316 162.769C723.152 162.752 723.001 162.864 722.981 163.028C722.7 165.227 722.315 167.633 722.074 168.496C721.843 168.213 721.496 167.765 721.173 167.352C719.211 164.829 718.687 164.24 718.376 164.2C717.964 164.145 716.012 164.961 714.894 165.451C714.743 165.518 714.673 165.695 714.74 165.847C714.807 165.999 714.984 166.068 715.135 166.001C716.404 165.444 717.922 164.844 718.274 164.799C718.625 165.053 719.968 166.78 720.698 167.72C721.404 168.628 721.779 169.106 721.925 169.233C721.99 169.287 722.067 169.315 722.146 169.315L722.149 169.317Z" fill="#E3D2CF"/>
<path d="M714.303 169.767C714.47 169.767 714.604 169.633 714.604 169.466C714.604 167.568 714.547 163.093 714.015 162.506C713.653 162.108 712.617 162.359 710.163 163.078C709.351 163.317 708.268 163.633 707.873 163.663C707.858 163.583 707.844 163.481 707.824 163.364C707.613 162.093 707.051 158.719 706.301 156.953C705.437 154.918 704.406 153.077 704.396 153.06C704.314 152.915 704.133 152.863 703.987 152.945C703.843 153.027 703.79 153.209 703.872 153.356C703.882 153.373 704.898 155.187 705.75 157.189C706.473 158.889 707.024 162.212 707.233 163.463C707.272 163.7 707.3 163.867 707.315 163.946C707.334 164.048 707.397 164.135 707.488 164.19C707.791 164.374 708.472 164.2 710.332 163.655C711.415 163.339 713.215 162.814 713.583 162.929C713.846 163.376 714.005 166.581 714.005 169.469C714.005 169.636 714.139 169.77 714.306 169.77L714.303 169.767Z" fill="#E3D2CF"/>
<path d="M855.053 397.631C855.053 397.631 854.415 404.677 854.541 406.087C854.668 407.495 853.774 413.262 853.327 414.287C853.066 414.884 851.807 413.205 851.665 413.036C850.764 411.968 849.875 410.891 848.844 409.943C847.982 409.15 846.972 408.6 846.072 407.864C844.255 406.378 842.899 404.269 841.513 402.398C839.787 400.069 837.32 397.826 836.133 395.164C835.18 393.027 834.524 390.703 834.077 388.407L855.053 397.631Z" fill="white"/>
<path d="M726.068 189.667C726.17 189.667 726.266 189.617 726.324 189.523C726.361 189.46 727.285 187.943 729.366 183.694C731.45 179.442 734.266 171.248 734.293 171.166C734.348 171.009 734.263 170.837 734.107 170.785C733.948 170.73 733.779 170.815 733.727 170.971C733.7 171.054 730.893 179.211 728.827 183.43C726.761 187.647 725.819 189.194 725.809 189.209C725.723 189.351 725.767 189.535 725.909 189.622C725.958 189.652 726.013 189.667 726.065 189.667L726.068 189.667Z" fill="#E3D2CF"/>
<path d="M764.888 244.628C764.888 244.628 769.068 251.149 769.217 251.694C770.444 256.199 769.627 258.316 769.49 258.724C769.353 259.134 769.217 259.065 767.786 259.405C766.356 259.746 762.675 258.995 760.971 257.017C759.268 255.037 759.253 249.183 759.253 249.183L759.814 245.549L764.89 244.628L764.888 244.628Z" fill="#FF9F8F"/>
<path d="M689.614 220.045C689.674 220.045 689.736 220.027 689.788 219.99C689.92 219.895 693.057 217.631 694.196 213.683C695.292 209.89 700.433 203.098 700.485 203.031C700.584 202.899 700.559 202.71 700.428 202.61C700.296 202.511 700.107 202.536 700.008 202.668C699.794 202.949 694.748 209.618 693.62 213.517C692.54 217.256 689.473 219.477 689.441 219.5C689.306 219.597 689.274 219.783 689.371 219.918C689.428 220 689.522 220.045 689.614 220.045Z" fill="#E3D2CF"/>
<path d="M830.545 277.777C830.441 277.031 830.749 276.32 830.992 275.633C831.502 274.2 831.209 272.309 832.786 271.568C833.324 271.317 833.714 271.001 834.288 271.073C834.71 271.128 835.137 271.324 835.614 271.227C835.825 271.187 836.019 271.095 836.235 271.063C836.501 271.016 836.759 271.008 837.027 271.073C837.668 271.232 838.222 271.697 838.706 272.265C839.782 272.128 840.872 272.12 841.888 272.222C844.115 272.446 846.775 272.844 848.206 274.772C848.377 275.006 848.514 275.24 848.618 275.474C850.64 276.078 852.348 277.195 852.709 279.603C852.892 280.817 853.434 281.151 854.246 281.91C854.683 282.315 854.973 282.785 855.088 283.38C855.118 283.527 855.13 283.671 855.137 283.818C856.267 285.377 857.211 287.089 857.457 289.024C857.748 291.301 857.611 294.239 856.26 296.057C854.38 298.582 851.357 299.804 848.802 301.453C847.309 302.413 845.685 303.304 844.22 304.356C843.964 304.54 843.713 304.727 843.47 304.921C843.204 305.13 842.946 305.344 842.7 305.57C842.67 305.6 842.638 305.628 842.61 305.657C842.402 305.859 842.191 306.085 841.98 306.307C841.918 306.374 841.853 306.439 841.788 306.503C841.463 306.849 841.12 307.177 840.753 307.431C840.375 307.682 840.033 307.73 839.645 307.461C839.153 307.115 838.816 306.416 838.537 305.914C838.289 305.471 838.071 305.018 837.864 304.56C837.725 304.244 837.589 303.923 837.455 303.605C835.873 299.841 834.432 296.005 833.061 292.161C832.458 290.47 831.968 288.768 831.613 287.047C831.502 286.529 831.41 286.012 831.33 285.492C830.992 283.37 830.876 281.21 831.017 279.006C831.017 278.964 831.035 278.932 831.052 278.902C831.022 278.867 830.997 278.83 830.97 278.79C830.759 278.491 830.598 278.165 830.543 277.785L830.545 277.777Z" fill="#36303A"/>
<path d="M819.673 303.267C820.264 305.466 825.308 307.742 828.822 308.697C831.504 309.424 837.393 310.307 841.639 306.934C845.886 303.56 850.277 290.211 849.84 288.671C849.398 287.131 845.447 282.73 845.447 282.73C845.447 282.73 832.855 277.596 831.829 278.039C830.806 278.476 828.295 282.33 825.166 288.159C823.924 290.467 822.37 293.535 821.215 296.376C821.014 296.866 820.83 297.343 820.658 297.811C819.826 300.092 819.362 302.098 819.673 303.267Z" fill="#FF9F8F"/>
<path d="M825.931 287.532C825.931 287.532 820.388 290.564 820.383 291.545C820.375 293.025 822.779 294.604 822.779 294.604L825.931 287.534L825.931 287.532Z" fill="#FF9F8F"/>
<path d="M826.261 287.694C826.261 287.694 826.271 287.674 826.274 287.664C826.525 287.114 826.939 286.639 827.401 286.688C828.253 286.781 827.876 287.748 827.595 288.181C827.357 288.549 826.823 289.189 826.368 288.937C825.924 288.689 826.1 288.064 826.261 287.694Z" fill="#36303A"/>
<path d="M828.139 283.927C828.417 283.917 828.703 284.044 828.948 284.156C829.279 284.308 829.609 284.452 829.934 284.614C830.401 284.848 830.856 285.109 831.266 285.435C831.646 285.738 831.973 286.094 832.247 286.497C832.314 286.594 832.378 286.703 832.371 286.82C832.356 286.994 832.175 287.116 831.998 287.124C831.78 287.134 831.574 287.027 831.385 286.932C831.184 286.83 830.975 286.741 830.766 286.651C830.314 286.457 829.86 286.268 829.415 286.054C828.946 285.828 828.439 285.609 828.059 285.241C827.853 285.039 827.709 284.716 827.684 284.432C827.662 284.181 827.791 283.974 828.049 283.937C828.079 283.932 828.109 283.93 828.139 283.93L828.139 283.927Z" fill="#36303A"/>
<path d="M820.658 297.811C821.101 297.921 821.62 298.02 822.141 298.04C823.505 298.092 824.391 296.97 824.391 296.97C824.391 296.97 823.49 296.985 822.618 296.856C821.746 296.726 821.215 296.373 821.215 296.373C821.014 296.863 820.83 297.341 820.658 297.809L820.658 297.811Z" fill="#F57E6C"/>
<path d="M825.111 305.309C825.111 305.309 825.966 307.15 825.933 309.914C825.901 312.678 825.524 319.124 825.524 319.124L833.978 325.768L841.202 321.032L842.057 304.916C842.057 304.916 831.417 303.996 831.221 303.996C831.025 303.996 825.114 305.312 825.114 305.312L825.111 305.309Z" fill="#FF9F8F"/>
<path d="M831.318 277.521C831.318 277.521 831.323 277.534 831.325 277.541C834.236 277.643 836.933 278.715 839.6 279.812C842.136 280.857 844.913 281.524 847.016 283.365C848.799 284.927 850.843 286.731 850.496 289.325C850.106 292.244 848.583 297.107 847.404 299.784C845.988 303.001 841.96 306.657 841.96 306.657C841.96 306.657 838.013 303.078 837.027 300.612C836.963 300.448 836.898 300.289 836.836 300.132C836.732 298.627 836.926 297.144 837.591 295.672C838.09 294.567 838.858 293.458 838.947 292.211C839.079 290.398 837.571 289.164 835.93 289.33C835.741 288.706 835.937 287.86 836.012 287.323C836.168 286.186 836.414 285.069 836.734 283.972C836.471 283.82 836.195 283.681 835.974 283.477C835.661 283.186 835.495 282.83 835.329 282.447C834.983 281.653 834.566 281.201 833.809 280.783C833.387 280.549 832.954 280.347 832.569 280.054C831.829 279.494 831.325 278.735 831.022 277.874C830.975 277.83 830.958 277.765 830.965 277.703C830.958 277.678 830.948 277.653 830.94 277.626C830.868 277.382 831.248 277.277 831.32 277.521L831.318 277.521Z" fill="#36303A"/>
<path d="M825.111 310.608C825.111 310.608 836.277 310.608 839.412 310.949C842.546 311.29 843.418 310.538 843.765 311.222C844.113 311.904 842.941 315.387 843.765 317.026C844.59 318.666 844.659 320.509 844.659 320.509L825.111 310.611L825.111 310.608Z" fill="white"/>
<path d="M807.731 330.117C807.885 328.179 810.709 324.975 810.58 323.034C810.456 321.211 810.22 319.325 810.717 317.534C812.016 312.869 817.06 312.352 821.16 312.419C826.745 312.509 833.394 311.959 838.503 314.641C843.621 317.33 847.389 322.591 849.587 327.823C850.751 330.597 851.223 333.57 851.72 336.52C852.78 342.797 853.826 349.083 854.484 355.417C854.814 358.599 855.043 361.793 855.132 364.992C855.222 368.289 855.324 371.51 855.997 374.752C856.68 378.055 857.397 381.317 857.69 384.685C857.941 387.546 857.959 390.42 857.767 393.283C857.847 394.062 857.929 394.84 858.016 395.619C858.162 396.937 858.498 398.92 857.204 399.823C854.894 401.433 851.422 398.552 849.579 397.35C846.425 395.295 843.415 393.059 839.918 391.586C835.336 389.656 830.424 388.663 825.447 388.902C821.056 389.113 815.423 387.305 815.423 387.305C814.847 387.026 814.181 386.046 813.754 385.566C813.235 384.979 812.795 384.347 812.435 383.648C811.663 382.148 811.266 380.493 810.709 378.909C809.833 376.424 807.175 337.204 807.734 330.119L807.731 330.117Z" fill="#6F5E68"/>
<path d="M835.199 313.367C835.199 313.367 802.69 300.729 800.132 299.498C797.574 298.266 789.17 287.519 787.761 288.288C786.356 289.057 775.336 294.644 774.698 295.669C774.06 296.694 776.359 299.98 777.512 303.013C778.662 306.046 783.313 312.728 786.001 315.001C788.685 317.275 789.783 318.059 794.514 324.584C799.245 331.109 823.927 343.123 823.927 343.123L835.199 313.369L835.199 313.367Z" fill="#6F5E68"/>
<path d="M819.561 341.217C819.67 341.217 819.777 341.157 819.829 341.05C819.903 340.901 819.844 340.722 819.695 340.647L809.448 335.51C809.299 335.436 809.12 335.495 809.045 335.645C808.971 335.794 809.03 335.973 809.179 336.048L819.427 341.185C819.469 341.207 819.516 341.217 819.561 341.217Z" fill="#524351"/>
<path d="M772.783 253.393C772.783 253.393 770.374 247.086 768.534 245.447C766.693 243.807 763.013 241.862 761.379 242.272C759.742 242.683 756.409 246.728 756.973 247.216C757.537 247.703 767.717 258.657 767.717 258.657L772.783 253.393Z" fill="#FF9F8F"/>
<path d="M770.17 265.416C770.17 265.416 769.694 259.09 769.04 257.296C768.387 255.502 766.135 253.246 765.382 252.43C764.63 251.614 757.837 241.449 757.239 241.529C756.643 241.608 756.181 246.534 756.335 250.773C756.389 252.286 757.077 256.445 758.21 258.657C760.085 262.319 762.837 266.058 762.837 266.058L768.228 266.122L770.17 265.413L770.17 265.416Z" fill="#FF9F8F"/>
<path d="M821.379 308.275C821.498 308.275 821.612 308.202 821.657 308.085C821.719 307.931 821.642 307.757 821.488 307.695C821.297 307.618 802.223 300.063 800.246 299.222C798.709 298.567 791.983 291.726 788.643 288.199C788.529 288.079 788.34 288.074 788.218 288.189C788.099 288.303 788.094 288.492 788.208 288.614C788.606 289.034 797.976 298.908 800.013 299.776C801.995 300.62 821.076 308.178 821.267 308.255C821.304 308.27 821.341 308.275 821.376 308.275L821.379 308.275Z" fill="#524351"/>
<path d="M767.014 245.235C767.131 245.235 767.24 245.168 767.29 245.054C767.354 244.902 767.285 244.725 767.133 244.658C767.113 244.651 765.223 243.832 764.734 243.559C763.937 242.822 748.618 224.037 742.755 216.825C742.65 216.699 742.462 216.679 742.332 216.783C742.203 216.888 742.186 217.077 742.29 217.206C747.357 223.438 763.929 243.79 764.416 244.069C764.903 244.347 766.813 245.176 766.895 245.21C766.934 245.228 766.974 245.235 767.014 245.235Z" fill="#F57E6C"/>
<path d="M769.922 263.816C770.049 263.816 770.166 263.737 770.208 263.61C770.243 263.5 771.072 260.876 769.612 255.977C769.08 254.194 767.088 251.067 765.934 250.514C765.695 250.4 765.482 250.382 765.293 250.46C764.65 250.726 764.749 252.024 765.042 253.345C764.468 252.465 763.962 251.654 763.475 250.489C763.212 249.858 762.886 249.116 762.476 248.415C762.228 247.989 761.784 247.226 761.163 247.116C760.542 247.007 760.058 247.089 759.72 247.36C759.591 247.464 759.501 247.581 759.439 247.693C758.945 247.367 758.014 246.877 757.169 247.121C757.01 247.168 756.918 247.335 756.966 247.494C757.013 247.653 757.179 247.745 757.338 247.698C758.068 247.484 759.079 248.139 759.404 248.41C759.491 248.482 759.615 248.499 759.717 248.452C759.822 248.405 759.891 248.305 759.896 248.191C759.896 248.186 759.913 247.969 760.102 247.823C760.298 247.671 760.629 247.631 761.058 247.706C761.406 247.768 761.786 248.42 761.95 248.698C762.35 249.385 762.665 250.104 762.921 250.718C763.477 252.049 764.051 252.925 764.714 253.94C765 254.375 765.293 254.826 765.611 255.346C765.69 255.475 765.854 255.527 765.993 255.462C766.132 255.398 766.199 255.241 766.155 255.097C765.467 252.975 765.246 251.126 765.524 251.012C765.531 251.009 765.581 251.007 765.678 251.054C766.602 251.497 768.519 254.398 769.04 256.147C770.439 260.843 769.649 263.393 769.641 263.418C769.589 263.575 769.676 263.744 769.833 263.796C769.863 263.806 769.895 263.811 769.927 263.811L769.922 263.816Z" fill="#F57E6C"/>
<path d="M771 264.008C771.112 264.008 771.219 263.946 771.271 263.839C771.333 263.712 772.781 260.702 773.081 258.699C773.382 256.691 772.758 253.278 772.731 253.134C772.701 252.97 772.545 252.863 772.381 252.893C772.217 252.922 772.11 253.079 772.14 253.243C772.147 253.278 772.771 256.704 772.485 258.612C772.199 260.522 770.744 263.548 770.729 263.577C770.657 263.727 770.719 263.906 770.868 263.978C770.911 263.998 770.955 264.008 771 264.008Z" fill="#F57E6C"/>
<path d="M773.374 254.622C773.429 254.622 773.484 254.607 773.533 254.577C773.672 254.49 773.717 254.303 773.628 254.161L772.212 251.897C772.123 251.758 771.939 251.716 771.797 251.803C771.658 251.89 771.613 252.077 771.703 252.218L773.118 254.482C773.176 254.574 773.272 254.624 773.372 254.624L773.374 254.622Z" fill="#F57E6C"/>
<path d="M762.298 256.226C762.34 256.226 762.382 256.216 762.424 256.199C762.573 256.129 762.64 255.95 762.568 255.798C762.563 255.788 762.089 254.766 761.52 253.283C760.952 251.803 760.107 248.872 760.097 248.843C760.05 248.683 759.886 248.591 759.725 248.636C759.566 248.683 759.474 248.848 759.519 249.009C759.553 249.131 760.38 251.995 760.959 253.497C761.535 254.997 762.019 256.04 762.024 256.05C762.077 256.159 762.183 256.224 762.298 256.224L762.298 256.226Z" fill="#F57E6C"/>
<path d="M760.05 258.137C760.092 258.137 760.132 258.129 760.174 258.109C760.326 258.042 760.393 257.863 760.323 257.711C760.308 257.677 758.751 254.219 758.18 252.838C757.621 251.49 757.209 248.671 757.206 248.644C757.182 248.479 757.033 248.36 756.866 248.39C756.702 248.415 756.588 248.566 756.613 248.731C756.63 248.85 757.04 251.651 757.626 253.069C758.2 254.457 759.762 257.923 759.777 257.958C759.827 258.07 759.936 258.134 760.05 258.134L760.05 258.137Z" fill="#F57E6C"/>
<path d="M763.428 267.344C763.783 268.115 764.282 269.195 764.888 270.498L772.296 266.784L770.511 264.232L763.428 267.344Z" fill="#36303A"/>
<path d="M783.209 282.631C783.269 282.631 783.331 282.614 783.383 282.576C783.517 282.479 783.549 282.293 783.455 282.158L770.416 263.742C770.322 263.607 770.133 263.575 769.999 263.669C769.865 263.766 769.833 263.953 769.927 264.087L782.966 282.504C783.023 282.586 783.117 282.631 783.212 282.631L783.209 282.631Z" fill="#F57E6C"/>
<path d="M764.481 268.956C765.36 270.478 767.18 271.073 768.549 270.282C769.917 269.491 770.315 267.615 769.438 266.09C768.559 264.568 766.738 263.973 765.37 264.764C764.001 265.555 763.604 267.433 764.481 268.956Z" fill="#F2E4E4"/>
<path d="M705.742 302.612L701.103 308.785L695.779 311.043L694.097 306.513L696.913 298.849L704.471 300.279L705.742 302.612Z" fill="#FF9F8F"/>
<path d="M725.636 233.424C730.623 234.774 734.082 236.75 735.644 241.999C737.353 247.743 733.725 253.179 731.34 258.284C727.093 267.379 705.742 302.615 705.742 302.615L692.508 299.667C692.508 299.667 691.196 298.513 693.653 295.619C696.109 292.729 696.772 283.454 698.344 279.019C699.916 274.583 700.837 275.31 702.521 271.424C704.205 267.54 707.012 258.612 707.012 258.612C694.716 255.967 690.518 253.315 678.227 250.661C666.982 248.236 652.863 245.929 650.437 232.2C648.795 222.915 654.87 210.002 654.87 210.002C654.87 210.002 720.592 232.058 725.638 233.424L725.636 233.424Z" fill="#415A80"/>
<path d="M694.42 305.593C694.42 305.593 697.182 307.536 697.912 307.645C698.642 307.752 702.832 306.359 703.686 306.973C704.54 307.588 705.33 309.581 705.536 309.884C705.742 310.19 715.704 315.636 716.208 315.882C716.712 316.128 718.965 317.524 719.203 317.942C719.442 318.36 718.697 320.867 717.656 321.114C716.613 321.36 690.327 318.609 690.051 318.228C689.776 317.847 690.985 312.409 692.602 308.981C694.219 305.555 694.42 305.595 694.42 305.595L694.42 305.593Z" fill="#36303A"/>
<path d="M694.097 294.219C694.236 294.219 694.36 294.122 694.39 293.982C694.418 293.858 697.092 281.589 698.6 279.178C700.232 276.566 703.793 269.016 704.424 266.19C705.05 263.383 708.363 254.02 708.395 253.925L708.517 253.579L708.154 253.527L671.889 248.36C671.725 248.335 671.574 248.449 671.549 248.616C671.527 248.78 671.641 248.932 671.805 248.957L707.707 254.074C707.091 255.826 704.409 263.495 703.838 266.063C703.219 268.839 699.703 276.282 698.091 278.865C696.529 281.365 693.913 293.351 693.804 293.861C693.769 294.022 693.871 294.182 694.033 294.219C694.055 294.224 694.075 294.226 694.097 294.226L694.097 294.219Z" fill="#293E5C"/>
<path d="M693.121 279.85C693.223 279.85 693.322 279.797 693.379 279.705C693.464 279.564 693.419 279.38 693.278 279.292L688.926 276.663C688.785 276.576 688.601 276.623 688.514 276.765C688.43 276.907 688.474 277.091 688.616 277.178L692.967 279.807C693.017 279.837 693.069 279.85 693.121 279.85Z" fill="#293E5C"/>
<path d="M708.114 254.124C708.171 254.124 708.228 254.109 708.278 254.074L712.927 251.034C713.066 250.945 713.106 250.758 713.014 250.619C712.925 250.479 712.739 250.442 712.6 250.532L707.95 253.572C707.811 253.661 707.772 253.848 707.863 253.987C707.921 254.074 708.017 254.124 708.114 254.124Z" fill="#293E5C"/>
<path d="M789.572 401.137C789.617 401.137 789.659 401.127 789.701 401.107L809.773 391.387C809.922 391.315 809.984 391.136 809.912 390.987C809.84 390.838 809.661 390.775 809.512 390.847L789.44 400.567C789.291 400.639 789.229 400.818 789.301 400.968C789.353 401.075 789.46 401.137 789.572 401.137Z" fill="#C78060"/>
<path d="M802.312 394.768C802.347 394.768 802.384 394.763 802.419 394.748C802.573 394.689 802.653 394.517 802.593 394.36L797.244 380.235C797.184 380.081 797.01 380.001 796.856 380.061C796.702 380.12 796.623 380.292 796.682 380.449L802.032 394.574C802.076 394.693 802.191 394.768 802.312 394.768Z" fill="#C78060"/>
<path d="M794.971 426.979C795.001 426.979 795.031 426.974 795.061 426.964L809.03 422.534C809.189 422.484 809.276 422.315 809.227 422.156C809.177 421.999 809.008 421.909 808.849 421.959L794.879 426.39C794.72 426.439 794.633 426.609 794.683 426.768C794.723 426.895 794.842 426.977 794.969 426.977L794.971 426.979Z" fill="#C78060"/>
</g>
<path d="M444.423 253.052C446.462 251.139 448.722 249.435 451.516 248.878C452.365 248.709 453.239 248.649 454.099 248.746C454.489 248.791 454.876 248.863 455.253 248.97C455.894 249.152 456.51 249.49 457.146 249.087C458.333 248.331 459.048 246.649 460.66 246.669C461.676 246.681 461.929 247.639 462.659 247.808C463.603 248.025 465.856 246.89 466.814 246.614C468.312 246.184 469.904 245.751 471.404 246.171C472.904 246.592 474.181 248.221 473.632 249.684C474.749 249.789 475.832 250.114 476.905 250.435C481.144 251.707 485.386 252.978 489.626 254.249C490.763 254.59 501.947 259.145 501.947 259.145C501.947 259.145 495.951 259.162 495.224 259.145C473.15 258.595 451.074 258.043 429 257.493C434.141 256.015 439.282 254.535 444.423 253.057L444.423 253.052Z" fill="white"/>
<defs>
<clipPath id="clip0_844_507">
<rect width="332.442" height="364.63" fill="white" transform="matrix(-1 -4.76477e-09 -4.76854e-09 1 891.442 116)"/>
</clipPath>
</defs>
</svg>
